<?xml version="1.0" encoding="utf-8"?>
<!-- Generator: Adobe Illustrator 26.0.3, SVG Export Plug-In . SVG Version: 6.00 Build 0)  -->
<svg version="1.1" id="Layer_1" xmlns="http://www.w3.org/2000/svg" xmlns:xlink="http://www.w3.org/1999/xlink" x="0px" y="0px"
	 viewBox="0 0 850.4 184.3" style="enable-background:new 0 0 850.4 184.3;" xml:space="preserve">
<style type="text/css">
	.st0{fill:#3B3B3B;}
	.st1{fill:#00839F;}
	.st2{fill:#F3A51C;}
	.st3{fill:#4E5E78;}
</style>
<g>
	<path class="st0" d="M73.7,104.6c-2.1-3-4.7-5.3-7.8-7c-2.2-1.2-4.7-1.9-7.2-2.3c-1.5,2.8-3.6,5.1-6.2,6.9c1-0.2,2.1-0.3,3.2-0.3
		c3.5,0,6.6,0.9,9.4,2.6c2.7,1.8,4.9,4.2,6.4,7.3c1.5,3.1,2.3,6.7,2.3,10.6s-0.8,7.5-2.3,10.6s-3.7,5.6-6.4,7.3
		c-2.7,1.8-5.9,2.6-9.4,2.6c-3.4,0-6.5-0.9-9.2-2.6c-2.7-1.8-4.8-4.2-6.4-7.3c-1.5-3.1-2.3-6.7-2.3-10.7c0-3.9,0.8-7.5,2.3-10.6
		c1.4-2.8,3.3-5.1,5.6-6.8c-1.3,0.3-2.6,0.4-3.9,0.4c-2,0-4-0.3-5.8-0.9c-0.9,1.2-1.7,2.4-2.4,3.8c-2.2,4.1-3.2,8.8-3.2,14.1
		c0,5.3,1.1,10.1,3.3,14.3s5.2,7.4,9.1,9.8c3.9,2.3,8.3,3.5,13.2,3.5c3.7,0,7-0.8,10.1-2.5c3.1-1.6,5.7-3.9,7.8-6.9v7.6h7.5V96.9
		h-7.5L73.7,104.6L73.7,104.6z"/>
	<ellipse class="st1" cx="67.8" cy="60.4" rx="11.3" ry="11.3"/>
	<ellipse class="st2" cx="41.8" cy="84.7" rx="14.7" ry="14.7"/>
	<ellipse class="st1" cx="58.3" cy="16.2" rx="6.1" ry="6.1"/>
	<ellipse class="st1" cx="40.9" cy="36.1" rx="7.8" ry="7.8"/>
	<path class="st0" d="M133.6,98.4c3.9,2.3,6.9,5.6,9.1,9.8c2.2,4.2,3.3,8.9,3.3,14.3c0,5.3-1.1,10-3.2,14.1c-2.2,4.1-5.2,7.4-9,9.7
		s-8.2,3.5-13.1,3.5c-3.7,0-7.1-0.8-10.3-2.5c-3.1-1.6-5.7-4-7.8-7v29.6h-7.5V96.7h7.5v7.6c2.1-2.9,4.7-5.2,7.8-6.9
		c3.1-1.6,6.4-2.5,10.1-2.5C125.3,94.9,129.7,96.1,133.6,98.4z M129.8,140.3c2.7-1.8,4.8-4.2,6.4-7.3c1.5-3.1,2.3-6.6,2.3-10.6
		s-0.8-7.6-2.3-10.7s-3.7-5.6-6.4-7.3c-2.7-1.8-5.8-2.6-9.2-2.6c-3.5,0-6.6,0.9-9.4,2.6c-2.7,1.8-4.9,4.2-6.4,7.3
		c-1.5,3.1-2.3,6.7-2.3,10.6s0.8,7.5,2.3,10.6s3.7,5.6,6.4,7.3s5.9,2.6,9.4,2.6C124.1,142.9,127.1,142.1,129.8,140.3z"/>
	<path class="st0" d="M161.5,146.6c-3.8-2.1-6.6-5.1-8.6-9l6.7-3.3c2.7,5.8,8,8.7,15.9,8.7c3.8,0,6.9-0.7,9.4-2.1
		c2.5-1.4,3.7-3.5,3.7-6.5s-1-5.2-3-6.7s-5.5-2.4-10.6-2.9c-7-0.6-12-2.2-15.1-4.7c-3-2.6-4.6-6-4.6-10.2c0-4.8,1.7-8.4,5.2-11.1
		c3.4-2.6,8.1-3.9,14.1-3.9c10.2,0,17.1,4,20.7,12.1l-6.7,3.3c-1.2-2.9-3.1-5.1-5.4-6.5c-2.4-1.4-5.4-2.1-9.2-2.1s-6.7,0.7-8.7,2.1
		s-3,3.4-3,5.9c0,2.4,1.1,4.4,3.2,5.9c2.2,1.5,5.9,2.5,11.1,2.9c6.5,0.6,11.3,2.2,14.5,4.8c3.2,2.6,4.8,6,4.8,10.3
		c0,3.4-1,6.4-3,8.8c-2,2.5-4.6,4.3-7.9,5.5c-3.3,1.2-6.8,1.9-10.6,1.9C169.6,149.7,165.2,148.7,161.5,146.6z"/>
	<path class="st0" d="M207.9,148V68.4h7.5V148H207.9L207.9,148z"/>
</g>
<g>
	<path class="st3" d="M377.1,133c-2.6,0-4.3-1.2-4.7-3.6c-1.8,2.5-4.7,3.9-8.6,3.9c-5.7,0-9.4-3.3-9.4-7.9c0-3.6,2.2-5.8,4.9-6.8
		c2.6-1.1,5.3-1.3,8.7-1.3c0.9,0,3,0.2,3.9,0.3v-2.2c0-1.5-0.3-2.9-1.1-3.8c-1.2-1.5-3-2-5.4-2s-6.5,0.9-8.9,3.5h-0.2v-3.8
		c2.6-2.3,6.6-3.3,9.8-3.3c2.9,0,5.5,0.8,7.3,2.5c1.6,1.5,2.3,3.4,2.3,7.2c0,1.9-0.1,6.7-0.1,8.9c0,1.8,0.1,3.2,0.3,3.8
		c0.3,0.7,0.9,1.2,2,1.2c0.6,0,1.5-0.2,2.1-0.4v3.3C379.2,132.8,378.1,133,377.1,133z M371.8,120.8c-1.2-0.2-3.2-0.4-4.2-0.4
		c-2.5,0-4.4,0.2-6,0.7c-1.8,0.6-3.3,1.7-3.3,4.2c0,2.6,2.3,4.5,6.2,4.5c3.2,0,5.8-1.3,7.4-3.6C371.8,125.2,371.8,123.8,371.8,120.8
		z"/>
	<path class="st3" d="M395.3,132.6v-26.3h7.3v4c1.5-2.8,4.9-4.7,8.7-4.7c4.8,0,7.6,2.2,8.5,5.6c0.4,1.5,0.5,3.2,0.5,5.7v15.6h-7.5
		v-14c0-1.6-0.2-3.2-0.5-3.9c-0.7-1.3-1.8-2.1-3.8-2.1c-2.3,0-4.7,1.3-5.7,3.5v16.5h-7.5V132.6z"/>
	<path class="st3" d="M447.5,133.1c-2.9,0-5.1-1.2-5.9-3.2c-1.7,2.5-4.3,3.4-7.6,3.4c-5.6,0-9.4-3.2-9.4-8.3c0-4.4,2.8-6.5,5.4-7.4
		s4.7-1.1,7.5-1.1c0.9,0,2.4,0.1,3.2,0.3v-1c0-1.2-0.3-1.9-0.9-2.6c-0.8-0.8-2.2-1.3-4-1.3c-2.2,0-6.1,0.7-8.9,3h-0.2v-6.4
		c3-2.2,7.4-3.1,10.7-3.1c3.6,0,6.4,0.9,8,2.4c1.8,1.5,2.7,3.7,2.7,7.8c0,1.9-0.1,4.3-0.1,6s0.1,3,0.3,3.6c0.2,0.7,0.7,1.1,1.6,1.1
		c0.3,0,1.1-0.1,1.7-0.4v6C450.7,132.7,449.1,133.1,447.5,133.1z M440.6,122.1c-0.7-0.1-1.7-0.2-2.6-0.2c-1.4,0-2.5,0-3.8,0.4
		s-2.3,1.2-2.3,2.6c0,1.8,1.4,2.8,3.7,2.8c1.7,0,3.8-0.8,5-2.3C440.6,124.6,440.6,124.4,440.6,122.1z"/>
	<path class="st3" d="M456.2,133.7h0.2c2.4,2.1,6.1,3.4,10,3.4c2.8,0,5.2-0.7,6.2-1.9s1.3-2.7,1.3-5v-1.9c-1.2,2.2-4,4.2-8.1,4.2
		c-6.5,0-12.7-3.7-12.7-12.8c0-10.2,7.5-13.8,12.9-13.8c3.7,0,6.6,1.4,7.9,3.5v-2.8h7.3v22.9c0,4.2-0.7,6.9-1.7,8.6
		c-2,3.4-6.5,5.7-12.6,5.7c-5.2,0-8.7-1.3-10.6-2.7L456.2,133.7L456.2,133.7z M473.7,115.9c-1-2.5-3.2-3.8-5.9-3.8
		c-3.4,0-6.9,1.9-6.9,7.3c0,4.7,3.5,6.5,6.7,6.5c2.8,0,5-1.4,6.1-3.8L473.7,115.9L473.7,115.9z"/>
	<path class="st3" d="M508.6,133.1c-2.9,0-5.1-1.2-5.9-3.2c-1.7,2.5-4.3,3.4-7.6,3.4c-5.6,0-9.4-3.2-9.4-8.3c0-4.4,2.8-6.5,5.4-7.4
		s4.7-1.1,7.5-1.1c0.9,0,2.4,0.1,3.2,0.3v-1c0-1.2-0.3-1.9-0.9-2.6c-0.8-0.8-2.2-1.3-4-1.3c-2.2,0-6.1,0.7-8.9,3h-0.2v-6.4
		c3-2.2,7.4-3.1,10.7-3.1c3.6,0,6.4,0.9,8,2.4c1.8,1.5,2.7,3.7,2.7,7.8c0,1.9-0.1,4.3-0.1,6s0.1,3,0.3,3.6c0.2,0.7,0.7,1.1,1.6,1.1
		c0.3,0,1.1-0.1,1.7-0.4v6C511.8,132.7,510.2,133.1,508.6,133.1z M501.7,122.1c-0.7-0.1-1.7-0.2-2.6-0.2c-1.4,0-2.5,0-3.8,0.4
		s-2.3,1.2-2.3,2.6c0,1.8,1.4,2.8,3.7,2.8c1.7,0,3.8-0.8,5-2.3C501.7,124.6,501.7,124.4,501.7,122.1z"/>
	<path class="st3" d="M516.1,132.6v-26.3h7.4v4.1c0.6-2.2,2.9-4.7,6.8-4.7c1.3,0,2.4,0.2,3.2,0.7v7.4h-0.2c-1.1-0.6-2.2-0.9-3.6-0.9
		c-3.3,0-5.3,1.4-6,3.9v15.8H516.1z"/>
	<path class="st3" d="M536.5,132.6v-26.3h7.4v4.1c0.6-2.2,2.9-4.7,6.8-4.7c1.3,0,2.4,0.2,3.2,0.7v7.4h-0.2c-1.1-0.6-2.2-0.9-3.6-0.9
		c-3.3,0-5.3,1.4-6,3.9v15.8H536.5z"/>
	<path class="st3" d="M570.1,133.3c-8.5,0-14.4-5.8-14.4-13.8s6.4-13.9,14.6-13.9c8.5,0,14.4,5.7,14.4,13.8
		C584.6,127.4,578.6,133.3,570.1,133.3z M570.2,112.2c-3.9,0-6.9,3.2-6.9,7.3c0,4.5,3.1,7.3,6.8,7.3c4.1,0,6.7-3.2,6.7-7.3
		C576.9,115.4,574.3,112.2,570.2,112.2z"/>
	<path class="st3" d="M613.9,133.3c-7.4,0-13.5-5.3-13.5-13.5c0-8.1,6-13.9,14-13.9c3.3,0,6.7,1.1,8.3,2.8v4.3h-0.2
		c-1.7-2.2-5.3-3.5-8.2-3.5c-5.2,0-10,3.6-10,10.1c0,6.9,5.2,10.1,10,10.1c3.5,0,6.3-1.2,8.3-3.4h0.2v4
		C620.8,132.1,617.9,133.3,613.9,133.3z"/>
	<path class="st3" d="M639.8,133.3c-7.8,0-13.6-5.9-13.6-13.7s6-13.7,13.7-13.7c7.9,0,13.6,5.7,13.6,13.7
		C653.5,127.4,647.6,133.3,639.8,133.3z M639.9,109.5c-5.6,0-9.7,4.4-9.7,10.1c0,5.9,4.3,10.1,9.8,10.1c5.7,0,9.6-4.5,9.6-10.1
		S645.6,109.5,639.9,109.5z"/>
	<path class="st3" d="M659.2,132.6v-26h3.7v4.3c1.6-2.7,4.9-4.9,9.3-4.9c4.5,0,7.1,1.8,8,4.9c1.6-2.5,4.8-4.9,9.9-4.9
		c4.7,0,7.4,2.2,8.3,5.6c0.4,1.5,0.5,3.2,0.5,5.7v15.3h-3.8v-14.7c0-2.5-0.3-4.5-0.7-5.4c-0.7-1.7-2.3-2.9-5.3-2.9
		c-3.6,0-6.8,2.1-8.1,4.8c0.1,0.7,0.1,2.1,0.1,3v15.2h-3.8v-14.7c0-2.5-0.3-4.5-0.7-5.4c-0.7-1.7-2.3-2.9-5.3-2.9
		c-3.6,0-6.8,2.2-8.2,4.8v18.2H659.2z"/>
	<path class="st3" d="M706.2,142.8v-36.2h3.7v4.9c1.6-3.2,5.8-5.7,10.3-5.7c6.7,0,12.7,4.7,12.7,13.4c0,9.2-6.5,13.7-13.3,13.7
		c-3.8,0-7.9-1.7-9.7-4.7v14.5L706.2,142.8L706.2,142.8z M719.6,129.4c4.7,0,9.5-2.9,9.5-10.1c0-7.1-5.3-9.8-9.5-9.8
		c-3.6,0-7.9,1.9-9.6,6.4v7.5C711.7,127.7,716,129.4,719.6,129.4z"/>
	<path class="st3" d="M759.5,133c-2.6,0-4.3-1.2-4.7-3.6c-1.8,2.5-4.7,3.9-8.6,3.9c-5.7,0-9.4-3.3-9.4-7.9c0-3.6,2.2-5.8,4.9-6.8
		c2.6-1.1,5.3-1.3,8.7-1.3c0.9,0,3,0.2,3.9,0.3v-2.2c0-1.5-0.3-2.9-1.1-3.8c-1.2-1.5-3-2-5.4-2s-6.5,0.9-8.9,3.5h-0.2v-3.8
		c2.6-2.3,6.6-3.3,9.8-3.3c2.9,0,5.5,0.8,7.3,2.5c1.6,1.5,2.3,3.4,2.3,7.2c0,1.9-0.1,6.7-0.1,8.9c0,1.8,0.1,3.2,0.3,3.8
		c0.3,0.7,0.9,1.2,2,1.2c0.6,0,1.5-0.2,2.1-0.4v3.3C761.6,132.8,760.5,133,759.5,133z M754.2,120.8c-1.2-0.2-3.2-0.4-4.2-0.4
		c-2.5,0-4.4,0.2-6,0.7c-1.8,0.6-3.3,1.7-3.3,4.2c0,2.6,2.3,4.5,6.2,4.5c3.2,0,5.8-1.3,7.4-3.6C754.2,125.2,754.2,123.8,754.2,120.8
		z"/>
	<path class="st3" d="M766.2,132.6v-26h3.7v4.3c1.6-2.7,4.9-4.9,9.6-4.9c4.8,0,7.7,2.2,8.6,5.6c0.4,1.5,0.5,3.2,0.5,5.7v15.3h-3.8
		v-14.7c0-2.5-0.3-4.5-0.8-5.4c-0.8-1.7-2.5-2.9-5.5-2.9c-3.4,0-7,2.1-8.5,4.8v18.1L766.2,132.6L766.2,132.6z"/>
	<path class="st3" d="M792.1,139.4h0.2c0.8,0.6,2.3,1,3.8,1c1.9,0,3-0.8,3.8-2c0.6-0.9,1.3-2.5,1.8-4l0.7-1.9l-11-25.8h4.3
		c5.6,13.4,7,17,8.7,21.6c1.6-4.6,3.1-8.4,8.3-21.6h4.2L806,133.6c-1.6,4-2.4,5.7-3.3,7c-1.5,2.3-3.7,3.3-6.5,3.3
		c-1.5,0-3.2-0.3-4.2-0.9v-3.6H792.1z"/>
</g>
<rect x="281.3" y="43.4" class="st3" width="4.8" height="130.7"/>
</svg>
