<svg xmlns="http://www.w3.org/2000/svg" width="200" height="50" viewBox="0 0 200 50">
    <defs>
        <linearGradient id="a" x1="7.504%" y1="9.5%" y2="100%">
            <stop offset="0%" stop-color="#3023AE"/>
            <stop offset="100%" stop-color="#C86DD7"/>
        </linearGradient>
    </defs>
    <g fill="none" fill-rule="evenodd">
        <path fill="#BBB" d="M7.246 35.34c.04.202.061.395.061.578 0 .183-.02.376-.06.579l-2.584-.02v6.825c0 .568.265.853.793.853h1.546c.095.23.142.46.142.69 0 .23-.013.373-.04.427-.624.081-1.268.122-1.932.122-1.316 0-1.973-.562-1.973-1.686v-7.231l-1.444.02a2.952 2.952 0 0 1-.061-.579c0-.183.02-.376.06-.579l1.445.02v-2.132c0-.366.054-.627.163-.782.108-.156.318-.234.63-.234h.55l.121.122v3.047l2.583-.04zm1.63.71c.096-.352.313-.636.652-.853.759.284 1.247.887 1.464 1.808.556-1.192 1.464-1.788 2.725-1.788.285 0 .597.027.936.081 0 .583-.115 1.057-.346 1.422-.163-.013-.4-.02-.712-.02-1.098 0-1.925.616-2.481 1.848v6.764c-.203.041-.454.061-.753.061-.298 0-.549-.02-.752-.06v-7.191c0-.921-.244-1.612-.732-2.072zm14.668 8.633c-.149.379-.38.636-.691.772-.665-.244-1.085-.718-1.261-1.422-1.044 1.015-2.068 1.523-3.071 1.523-.516 0-.963-.081-1.343-.243a2.734 2.734 0 0 1-.945-.65c-.251-.271-.441-.583-.57-.935a3.226 3.226 0 0 1-.193-1.117c0-.542.092-1.02.275-1.432.183-.413.433-.755.752-1.026.319-.27.695-.474 1.129-.61a4.687 4.687 0 0 1 1.403-.202c1.017 0 1.844.06 2.481.182v-1.015c0-1.381-.61-2.072-1.83-2.072-.936 0-2.04.278-3.315.833a1.505 1.505 0 0 1-.529-1.178c1.464-.637 2.793-.955 3.986-.955 2.102 0 3.153 1.13 3.153 3.392v4.184c-.014.488.03.89.132 1.21.102.317.247.571.437.76zm-2.034-2.031V40.62a9.532 9.532 0 0 0-1.016-.111c-.353-.02-.726-.03-1.12-.03-.772 0-1.362.179-1.768.537-.407.36-.61.83-.61 1.412 0 .569.142 1.02.426 1.35.285.333.672.499 1.16.499.501 0 1.013-.14 1.535-.417.522-.277.987-.68 1.393-1.208zm9.807-3.779v-.223c0-.298-.04-.59-.122-.873a2.178 2.178 0 0 0-.376-.752 1.826 1.826 0 0 0-.651-.518c-.264-.129-.58-.193-.946-.193-.773 0-1.383.352-1.83 1.056-.448.704-.671 1.707-.671 3.007s.22 2.271.66 2.914c.441.644 1.041.965 1.8.965.8 0 1.716-.372 2.746-1.117.366.217.604.535.712.955-1.044.975-2.217 1.462-3.518 1.462-.651 0-1.22-.128-1.709-.386a3.765 3.765 0 0 1-1.24-1.046 4.552 4.552 0 0 1-.763-1.564 7.138 7.138 0 0 1-.254-1.94c0-.934.105-1.75.315-2.447.21-.698.502-1.273.874-1.727.373-.454.81-.792 1.312-1.016a3.904 3.904 0 0 1 1.607-.335c.583 0 1.091.092 1.525.275.434.182.797.416 1.088.7.292.285.512.596.661.935.15.338.224.656.224.954 0 .65-.264.975-.793.975-.19 0-.407-.02-.651-.06zm9.807 2.804l.793 1.787c.352.799.678 1.307.976 1.523a1.047 1.047 0 0 1-.895.447c-.38 0-.647-.08-.803-.243-.156-.163-.315-.434-.478-.813l-.936-2.112c-.257-.596-.522-.996-.793-1.199-.271-.203-.63-.304-1.078-.304-.447 0-.868.027-1.26.08v4.47c-.204.04-.452.06-.743.06-.292 0-.539-.02-.742-.06V30.505l.122-.122h.549c.325 0 .542.078.65.233.109.156.163.417.163.782v8.166l.875-.04c.19 0 .346-.095.468-.285l2.176-3.21c.176-.27.339-.463.488-.578a.84.84 0 0 1 .529-.173c.203 0 .495.014.874.04l.122.163-2.583 3.758a2.742 2.742 0 0 1-.488.569c.461.095.848.288 1.16.579.311.29.596.72.854 1.29zm5.27-4.936v8.572c-.203.04-.453.06-.752.06-.298 0-.549-.02-.752-.06v-7.841c0-.38-.061-.637-.183-.772s-.34-.203-.651-.203h-.183a1.613 1.613 0 0 1-.081-.549c0-.216.027-.406.081-.568.258-.027.468-.051.63-.071a3.3 3.3 0 0 1 .387-.03h.163c.42 0 .749.131.986.395s.356.62.356 1.067zm-1.992-4.875c.217-.136.529-.203.935-.203.394 0 .665.06.814.182.149.122.224.38.224.772 0 .393-.082.654-.245.782-.162.129-.427.193-.793.193-.325 0-.586-.05-.783-.152-.196-.102-.295-.376-.295-.823 0-.311.048-.562.143-.751zm12.898 6.48v5.037c0 .772.074 1.347.223 1.726-.216.217-.535.325-.955.325-.516 0-.773-.331-.773-.995v-5.627c0-.826-.102-1.411-.305-1.757-.204-.345-.59-.517-1.16-.517-.542 0-1.105.145-1.688.436a4.6 4.6 0 0 0-1.464 1.128v7.21c-.203.041-.454.061-.753.061-.298 0-.549-.02-.752-.06V35.4l.122-.122h.57c.325 0 .542.085.65.254.109.17.163.437.163.802v.285a5.455 5.455 0 0 1 1.627-1.046 4.766 4.766 0 0 1 1.871-.396c.909 0 1.573.29 1.993.873.42.582.63 1.347.63 2.295zm9.095-2.154c.19-.474.549-.806 1.077-.995.326.19.55.454.672.792-.38.366-.57 1.09-.57 2.174v6.378c0 .948-.085 1.753-.254 2.417-.17.663-.417 1.205-.742 1.625-.326.42-.73.724-1.21.914-.482.19-1.041.284-1.678.284-1.275 0-2.441-.23-3.499-.69.014-.474.156-.867.428-1.178.908.433 1.837.65 2.786.65.542 0 .99-.075 1.342-.224.353-.149.634-.366.844-.65a2.56 2.56 0 0 0 .437-1.026 6.8 6.8 0 0 0 .122-1.35v-1.179c-.88.894-1.87 1.341-2.969 1.341-1.098 0-1.946-.457-2.542-1.371-.597-.914-.895-2.19-.895-3.829 0-.826.105-1.56.315-2.204.21-.643.492-1.185.844-1.625a3.65 3.65 0 0 1 1.22-1.005c.462-.23.95-.346 1.465-.346 1.03 0 1.966.366 2.807 1.097zm-.245 6.48V37.41a4.504 4.504 0 0 0-1.2-.762 3.02 3.02 0 0 0-1.159-.254c-.759 0-1.37.329-1.83.985-.461.657-.692 1.642-.692 2.956 0 1.3.2 2.265.6 2.894.4.63.885.945 1.454.945.57 0 1.099-.139 1.587-.416.488-.278.902-.64 1.24-1.087zm13.37-7.333c.04.203.06.396.06.579 0 .183-.02.376-.06.579l-2.583-.02v6.825c0 .568.264.853.793.853h1.546c.095.23.142.46.142.69 0 .23-.013.373-.04.427-.624.081-1.268.122-1.933.122-1.315 0-1.972-.562-1.972-1.686v-7.231l-1.444.02a2.952 2.952 0 0 1-.061-.579c0-.183.02-.376.06-.579l1.445.02v-2.132c0-.366.054-.627.162-.782.109-.156.319-.234.63-.234h.55l.122.122v3.047l2.583-.04zm1.63.711c.096-.352.312-.636.651-.853.76.284 1.248.887 1.465 1.808.556-1.192 1.464-1.788 2.725-1.788.285 0 .597.027.936.081 0 .583-.116 1.057-.346 1.422-.163-.013-.4-.02-.712-.02-1.098 0-1.925.616-2.481 1.848v6.764c-.204.041-.454.061-.753.061-.298 0-.549-.02-.752-.06v-7.191c0-.921-.244-1.612-.732-2.072zm7.367 6.277v-5.058c0-.718-.082-1.293-.244-1.727.23-.216.549-.325.955-.325.516 0 .773.332.773.995v5.627c0 .853.109 1.449.326 1.788.217.338.596.507 1.139.507.542 0 1.105-.145 1.688-.436a4.6 4.6 0 0 0 1.464-1.128v-7.21c.081-.028.19-.048.326-.062a4.301 4.301 0 0 1 .844 0c.128.014.24.034.335.061v7.15c0 1.084.19 1.808.57 2.174-.122.379-.353.636-.692.772-.664-.217-1.091-.718-1.281-1.503a5.409 5.409 0 0 1-1.658 1.117 4.771 4.771 0 0 1-1.942.426c-.908 0-1.57-.29-1.983-.873-.414-.582-.62-1.348-.62-2.295zm18.104-1.544h-6.305c.068 2.302.943 3.453 2.624 3.453.922 0 1.905-.284 2.95-.853.297.27.48.616.548 1.036-1.112.758-2.359 1.137-3.742 1.137-.705 0-1.308-.132-1.81-.396a3.364 3.364 0 0 1-1.23-1.097 4.887 4.887 0 0 1-.702-1.655 9.169 9.169 0 0 1-.224-2.092c0-.772.092-1.476.275-2.113.183-.636.45-1.185.803-1.645a3.79 3.79 0 0 1 1.271-1.077c.495-.257 1.061-.386 1.698-.386.624 0 1.183.112 1.678.335.495.224.909.529 1.24.915.333.385.587.846.764 1.38a5.45 5.45 0 0 1 .264 1.717c0 .244-.01.478-.03.701-.02.223-.045.437-.072.64zm-6.305-1.158h4.882v-.264c0-.934-.197-1.686-.59-2.255-.393-.569-.983-.853-1.77-.853-.773 0-1.372.305-1.8.914-.427.61-.667 1.429-.722 2.458zm18.76-.752v-.223c0-.298-.041-.59-.123-.873a2.178 2.178 0 0 0-.376-.752 1.826 1.826 0 0 0-.65-.518c-.265-.129-.58-.193-.946-.193-.773 0-1.383.352-1.83 1.056-.448.704-.672 1.707-.672 3.007s.22 2.271.661 2.914c.44.644 1.04.965 1.8.965.8 0 1.715-.372 2.746-1.117.366.217.603.535.711.955-1.044.975-2.216 1.462-3.518 1.462-.65 0-1.22-.128-1.708-.386a3.765 3.765 0 0 1-1.241-1.046 4.552 4.552 0 0 1-.763-1.564 7.138 7.138 0 0 1-.254-1.94c0-.934.105-1.75.315-2.447.21-.698.502-1.273.875-1.727.373-.454.81-.792 1.312-1.016a3.904 3.904 0 0 1 1.606-.335c.583 0 1.092.092 1.526.275.434.182.796.416 1.088.7.291.285.512.596.66.935.15.338.224.656.224.954 0 .65-.264.975-.793.975-.19 0-.406-.02-.65-.06zm10.03 5.607c-.719.717-1.654 1.076-2.807 1.076-.678 0-1.278-.128-1.8-.386a3.82 3.82 0 0 1-1.322-1.066c-.36-.454-.63-1.002-.813-1.645a7.738 7.738 0 0 1-.275-2.123c0-.772.092-1.48.275-2.123.183-.643.454-1.195.813-1.655.36-.46.8-.82 1.322-1.077s1.122-.386 1.8-.386c.678 0 1.278.129 1.8.386.522.258.963.616 1.322 1.077.36.46.634 1.012.824 1.655.19.644.284 1.351.284 2.123 0 1.815-.474 3.196-1.423 4.144zm-2.787-.102c.868 0 1.53-.369 1.983-1.107.455-.738.682-1.716.682-2.935 0-.542-.051-1.06-.153-1.554a4.278 4.278 0 0 0-.478-1.3 2.55 2.55 0 0 0-.834-.884c-.339-.216-.745-.325-1.22-.325-.46 0-.857.105-1.19.315a2.52 2.52 0 0 0-.823.864 4.15 4.15 0 0 0-.478 1.29 7.909 7.909 0 0 0-.153 1.594c0 .569.051 1.097.153 1.584.101.488.257.914.467 1.28.21.366.485.653.824.863.34.21.746.315 1.22.315zm8.994-.223h.854c.054.122.091.257.112.406.02.149.03.284.03.406 0 .081-.003.146-.01.193a.839.839 0 0 0-.01.112c-.217.04-.427.074-.63.101-.204.028-.407.041-.61.041-.557 0-1.025-.125-1.404-.376-.38-.25-.57-.694-.57-1.33V30.505l.122-.122h.55c.325 0 .542.078.65.233.109.156.163.417.163.782v11.883c0 .583.25.874.753.874zm9.38.325c-.72.717-1.655 1.076-2.808 1.076-.678 0-1.277-.128-1.8-.386a3.82 3.82 0 0 1-1.321-1.066c-.36-.454-.631-1.002-.814-1.645a7.738 7.738 0 0 1-.275-2.123c0-.772.092-1.48.275-2.123.183-.643.454-1.195.814-1.655.359-.46.8-.82 1.322-1.077s1.121-.386 1.8-.386c.677 0 1.277.129 1.8.386.521.258.962.616 1.321 1.077.36.46.634 1.012.824 1.655.19.644.285 1.351.285 2.123 0 1.815-.475 3.196-1.424 4.144zm-2.787-.102c.868 0 1.529-.369 1.983-1.107.454-.738.681-1.716.681-2.935 0-.542-.05-1.06-.152-1.554a4.278 4.278 0 0 0-.478-1.3 2.55 2.55 0 0 0-.834-.884c-.34-.216-.746-.325-1.22-.325-.462 0-.858.105-1.19.315a2.52 2.52 0 0 0-.824.864 4.15 4.15 0 0 0-.478 1.29 7.909 7.909 0 0 0-.153 1.594c0 .569.051 1.097.153 1.584.102.488.258.914.468 1.28.21.366.485.653.823.863.34.21.746.315 1.22.315zm6.247-8.328c.095-.352.312-.636.651-.853.76.284 1.247.887 1.464 1.808.556-1.192 1.465-1.788 2.726-1.788.284 0 .596.027.935.081 0 .583-.115 1.057-.346 1.422-.162-.013-.4-.02-.711-.02-1.099 0-1.926.616-2.482 1.848v6.764c-.203.041-.454.061-.752.061s-.55-.02-.753-.06v-7.191c0-.921-.244-1.612-.732-2.072zm6.43 8.49c.014-.42.21-.785.59-1.096.61.352 1.156.596 1.638.731.481.135.918.203 1.312.203.339 0 .633-.044.884-.132.251-.088.465-.203.64-.345.177-.142.313-.302.408-.478.095-.176.149-.352.162-.528 0-.406-.125-.748-.376-1.025-.25-.278-.62-.512-1.108-.701l-1.14-.447c-.867-.339-1.518-.735-1.952-1.188a2.281 2.281 0 0 1-.65-1.636c0-.42.088-.802.264-1.147.176-.346.42-.64.732-.884a3.515 3.515 0 0 1 1.098-.569 4.49 4.49 0 0 1 1.383-.203c1.004 0 2.007.224 3.01.67 0 .475-.156.867-.467 1.179a7.494 7.494 0 0 0-1.414-.488 5.436 5.436 0 0 0-1.17-.142c-.623 0-1.094.142-1.413.427-.319.284-.478.609-.478.975 0 .392.122.7.366.924.244.223.63.437 1.16.64l1.2.467c1.68.663 2.521 1.645 2.521 2.945 0 .907-.345 1.612-1.037 2.113-.691.5-1.627.751-2.807.751-1.152 0-2.27-.338-3.355-1.015z"/>
        <path fill="url(#a)" fill-rule="nonzero" d="M81.344 25.869c-2.324 0-4.33-.623-6.013-1.868-1.68-1.244-2.884-2.96-3.613-5.144l-.08-.238 5-1.872.103.217c.517 1.098 1.192 1.97 2.027 2.623.822.642 1.723.96 2.71.96 1.043 0 1.85-.193 2.426-.573.549-.362.817-.874.817-1.566 0-.432-.193-.818-.595-1.17a4.435 4.435 0 0 0-1.355-.836 51.438 51.438 0 0 0-2.308-.78 61.936 61.936 0 0 1-1.56-.518c-.349-.124-.848-.32-1.497-.588-.66-.273-1.163-.524-1.513-.758a16.978 16.978 0 0 1-1.221-.914c-.491-.397-.863-.816-1.114-1.257a7.607 7.607 0 0 1-.64-1.553 6.736 6.736 0 0 1-.279-1.959c0-1.943.768-3.581 2.293-4.897 1.52-1.31 3.572-1.963 6.145-1.963 2.147 0 3.96.561 5.432 1.687 1.47 1.123 2.448 2.572 2.93 4.338l.065.24-5 1.615-.094-.215c-.693-1.572-1.879-2.345-3.6-2.345-1.764 0-2.576.544-2.576 1.64 0 .23.069.428.21.604.149.186.441.387.876.594.461.22.838.383 1.13.491.299.11.826.3 1.577.564.803.267 1.422.479 1.858.635.44.158 1.04.398 1.8.722.779.332 1.396.69 1.852 1.075.443.374.901.82 1.376 1.34.493.54.852 1.173 1.074 1.899.22.714.329 1.495.329 2.343 0 2.279-.86 4.099-2.57 5.438-1.695 1.327-3.832 1.989-6.402 1.989zm16.018-5.343c.574.48 1.304.722 2.202.722 1.48 0 2.686-.566 3.638-1.706l.183-.22 3.173 3.17-.152.182c-1.763 2.127-4.05 3.195-6.842 3.195-2.584 0-4.635-.817-6.133-2.451-1.494-1.63-2.238-3.882-2.238-6.743 0-2.795.75-5.024 2.254-6.675C94.956 8.343 97 7.515 99.564 7.515c2.335 0 4.247.713 5.722 2.14 1.479 1.43 2.215 3.499 2.215 6.187 0 1.1-.045 1.946-.137 2.54l-.034.22H96.472c.082.86.38 1.496.89 1.924zm4.934-6.078c-.295-1.56-1.252-2.313-2.932-2.313-.806 0-1.456.228-1.962.684-.446.4-.736.94-.87 1.629h5.764zm16.18-6.933c1.642 0 3.08.521 4.308 1.561 1.244 1.056 1.86 2.751 1.86 5.066v11.327h-5.36v-9.127c0-1.331-.197-2.279-.574-2.838-.358-.533-.97-.802-1.87-.802-.97 0-1.654.28-2.079.832-.437.569-.663 1.482-.663 2.741v9.194h-5.361V7.915h5.36v1.167c1.103-1.045 2.568-1.567 4.38-1.567zm14.34 18.354a9.882 9.882 0 0 1-4.147-.907c-1.33-.607-2.357-1.42-3.075-2.437l-.137-.194 3.469-2.943.17.17c.448.447 1.029.866 1.742 1.255.697.38 1.4.568 2.112.568 1.455 0 2.109-.368 2.109-1.073 0-.304-.156-.551-.495-.762-.393-.244-1.143-.578-2.232-.99-2.142-.722-3.704-1.496-4.69-2.332-1.019-.863-1.528-2.076-1.528-3.616 0-1.573.647-2.83 1.928-3.745 1.26-.9 2.82-1.348 4.674-1.348 2.655 0 4.862.975 6.603 2.92l.181.202-3.523 2.882-.166-.152c-1-.914-2.03-1.365-3.095-1.365-1.21 0-1.742.292-1.742.84 0 .509 1.037 1.088 3.16 1.62.808.268 1.478.521 2.01.759.538.24 1.125.582 1.76 1.024a4.552 4.552 0 0 1 1.503 1.714c.342.682.512 1.466.512 2.35 0 1.746-.654 3.123-1.956 4.107-1.284.97-3.002 1.453-5.147 1.453zm11.236-19.067c-.825 0-1.547-.3-2.151-.891-.606-.593-.913-1.31-.913-2.136 0-.826.3-1.537.896-2.12.594-.58 1.322-.874 2.168-.874.846 0 1.568.287 2.152.858.584.572.88 1.289.88 2.136 0 .824-.295 1.54-.876 2.132-.584.595-1.307.895-2.156.895zm-2.697 1.113h5.361v17.554h-5.36V7.915zm17.37-.4c1.642 0 3.082.521 4.308 1.561 1.245 1.056 1.861 2.751 1.861 5.066v11.327h-5.36v-9.127c0-1.331-.197-2.279-.574-2.838-.358-.533-.971-.802-1.87-.802-.97 0-1.654.28-2.079.832-.438.569-.664 1.482-.664 2.741v9.194h-5.36V7.915h5.36v1.167c1.103-1.045 2.568-1.567 4.379-1.567zm17.885.4h5.36v14.327c0 1.342-.05 2.457-.151 3.346a10.1 10.1 0 0 1-.65 2.6c-.34.851-.822 1.532-1.447 2.04-.616.498-1.423.913-2.418 1.244-.99.33-2.195.55-3.617.663l-.152.012-3.101-4.628.44-.037c2.353-.197 3.917-.471 4.671-.811.562-.253.903-.764 1.02-1.56-.778.507-1.813.758-3.099.758-2.234 0-4.026-.8-5.356-2.394-1.323-1.586-1.98-3.855-1.98-6.8 0-2.767.668-4.986 2.01-6.647 1.352-1.673 3.134-2.513 5.326-2.513 1.284 0 2.335.28 3.144.846v-.446zm0 5.735l-.174-.174a2.362 2.362 0 0 0-.327-.284 4.242 4.242 0 0 0-.423-.234 2.215 2.215 0 0 0-.627-.193 5.264 5.264 0 0 0-.858-.063c-.851 0-1.5.327-1.974.99-.488.684-.736 1.677-.736 2.983 0 2.717.898 4.006 2.71 4.006 1.066 0 1.863-.292 2.409-.873V13.65z"/>
        <path fill="#B312D4" d="M13.788 10.1c0-.711-.083-1.394-.25-2.05a4.8 4.8 0 0 0-.818-1.733c-.378-.5-.868-.9-1.468-1.2-.601-.3-1.335-.45-2.203-.45-1.713 0-3.015.766-3.905 2.3-.89 1.533-1.335 3.733-1.335 6.6 0 2.844.478 5.016 1.435 6.516.957 1.5 2.37 2.25 4.239 2.25 1.869 0 3.816-.844 5.84-2.533.913.6 1.502 1.367 1.77 2.3a9.681 9.681 0 0 1-1.686 1.333c-.634.4-1.302.75-2.003 1.05-.7.3-1.424.534-2.169.7-.745.167-1.474.25-2.186.25-1.713 0-3.149-.327-4.306-.983-1.157-.656-2.063-1.522-2.72-2.6-.656-1.078-1.146-2.322-1.468-3.733a19.606 19.606 0 0 1-.484-4.384c0-2 .234-3.744.7-5.233.468-1.489 1.108-2.728 1.92-3.717.812-.989 1.763-1.733 2.853-2.233 1.09-.5 2.248-.75 3.472-.75 1.268 0 2.408.178 3.42.533 1.013.356 1.88.834 2.604 1.434.723.6 1.274 1.289 1.652 2.066.378.778.567 1.6.567 2.467 0 1.333-.667 2-2.002 2-.423 0-.913-.067-1.469-.2zm17.047 13.5c-1.224 1.222-2.837 1.833-4.84 1.833-1.157 0-2.18-.205-3.07-.616-.89-.411-1.641-1-2.253-1.767-.612-.767-1.08-1.678-1.402-2.733-.323-1.056-.484-2.24-.484-3.55 0-1.29.161-2.467.484-3.534.323-1.066.79-1.983 1.402-2.75a6.137 6.137 0 0 1 2.253-1.766c.89-.411 1.913-.617 3.07-.617 1.157 0 2.18.206 3.07.617.89.41 1.642 1 2.254 1.766.611.767 1.079 1.684 1.401 2.75.323 1.067.484 2.245.484 3.534 0 2.977-.79 5.255-2.37 6.833zm-4.84-12.867c-2.425 0-3.638 2.011-3.638 6.034 0 4.022 1.213 6.033 3.638 6.033 2.448 0 3.672-2.011 3.672-6.033 0-4.023-1.224-6.034-3.672-6.034zm14.877 11.7h1.235c.2.556.3 1.045.3 1.467 0 .422-.033.756-.1 1-.89.156-1.835.233-2.836.233-2.203 0-3.305-1.144-3.305-3.433V.7L36.4.5h1.302c.69 0 1.173.172 1.451.517.279.344.418.905.418 1.683v18.233c0 1 .434 1.5 1.301 1.5zm14.71 1.167c-1.223 1.222-2.836 1.833-4.839 1.833-1.157 0-2.18-.205-3.07-.616-.89-.411-1.641-1-2.253-1.767-.612-.767-1.08-1.678-1.402-2.733-.323-1.056-.484-2.24-.484-3.55 0-1.29.161-2.467.484-3.534.323-1.066.79-1.983 1.402-2.75a6.137 6.137 0 0 1 2.253-1.766c.89-.411 1.913-.617 3.07-.617 1.157 0 2.18.206 3.07.617.89.41 1.642 1 2.253 1.766.612.767 1.08 1.684 1.402 2.75.323 1.067.484 2.245.484 3.534 0 2.977-.79 5.255-2.37 6.833zm-4.839-12.867c-2.425 0-3.638 2.011-3.638 6.034 0 4.022 1.213 6.033 3.638 6.033 2.448 0 3.671-2.011 3.671-6.033 0-4.023-1.223-6.034-3.67-6.034zm9.303-.6c.223-.822.646-1.433 1.269-1.833 1.535.333 2.547 1.322 3.037 2.967.89-1.978 2.347-2.967 4.372-2.967.534 0 1.124.067 1.769.2 0 1.289-.278 2.378-.834 3.267-.2-.067-.657-.123-1.369-.167-1.513 0-2.703.844-3.571 2.533V25c-.423.089-.996.133-1.719.133-.723 0-1.296-.044-1.719-.133V13.567c0-1.511-.411-2.656-1.235-3.434z"/>
        <g>
            <path fill="#BBB" d="M7.246 35.34c.04.202.061.395.061.578 0 .183-.02.376-.06.579l-2.584-.02v6.825c0 .568.265.853.793.853h1.546c.095.23.142.46.142.69 0 .23-.013.373-.04.427-.624.081-1.268.122-1.932.122-1.316 0-1.973-.562-1.973-1.686v-7.231l-1.444.02a2.952 2.952 0 0 1-.061-.579c0-.183.02-.376.06-.579l1.445.02v-2.132c0-.366.054-.627.163-.782.108-.156.318-.234.63-.234h.55l.121.122v3.047l2.583-.04zm1.63.71c.096-.352.313-.636.652-.853.759.284 1.247.887 1.464 1.808.556-1.192 1.464-1.788 2.725-1.788.285 0 .597.027.936.081 0 .583-.115 1.057-.346 1.422-.163-.013-.4-.02-.712-.02-1.098 0-1.925.616-2.481 1.848v6.764c-.203.041-.454.061-.753.061-.298 0-.549-.02-.752-.06v-7.191c0-.921-.244-1.612-.732-2.072zm14.668 8.633c-.149.379-.38.636-.691.772-.665-.244-1.085-.718-1.261-1.422-1.044 1.015-2.068 1.523-3.071 1.523-.516 0-.963-.081-1.343-.243a2.734 2.734 0 0 1-.945-.65c-.251-.271-.441-.583-.57-.935a3.226 3.226 0 0 1-.193-1.117c0-.542.092-1.02.275-1.432.183-.413.433-.755.752-1.026.319-.27.695-.474 1.129-.61a4.687 4.687 0 0 1 1.403-.202c1.017 0 1.844.06 2.481.182v-1.015c0-1.381-.61-2.072-1.83-2.072-.936 0-2.04.278-3.315.833a1.505 1.505 0 0 1-.529-1.178c1.464-.637 2.793-.955 3.986-.955 2.102 0 3.153 1.13 3.153 3.392v4.184c-.014.488.03.89.132 1.21.102.317.247.571.437.76zm-2.034-2.031V40.62a9.532 9.532 0 0 0-1.016-.111c-.353-.02-.726-.03-1.12-.03-.772 0-1.362.179-1.768.537-.407.36-.61.83-.61 1.412 0 .569.142 1.02.426 1.35.285.333.672.499 1.16.499.501 0 1.013-.14 1.535-.417.522-.277.987-.68 1.393-1.208zm9.807-3.779v-.223c0-.298-.04-.59-.122-.873a2.178 2.178 0 0 0-.376-.752 1.826 1.826 0 0 0-.651-.518c-.264-.129-.58-.193-.946-.193-.773 0-1.383.352-1.83 1.056-.448.704-.671 1.707-.671 3.007s.22 2.271.66 2.914c.441.644 1.041.965 1.8.965.8 0 1.716-.372 2.746-1.117.366.217.604.535.712.955-1.044.975-2.217 1.462-3.518 1.462-.651 0-1.22-.128-1.709-.386a3.765 3.765 0 0 1-1.24-1.046 4.552 4.552 0 0 1-.763-1.564 7.138 7.138 0 0 1-.254-1.94c0-.934.105-1.75.315-2.447.21-.698.502-1.273.874-1.727.373-.454.81-.792 1.312-1.016a3.904 3.904 0 0 1 1.607-.335c.583 0 1.091.092 1.525.275.434.182.797.416 1.088.7.292.285.512.596.661.935.15.338.224.656.224.954 0 .65-.264.975-.793.975-.19 0-.407-.02-.651-.06zm9.807 2.804l.793 1.787c.352.799.678 1.307.976 1.523a1.047 1.047 0 0 1-.895.447c-.38 0-.647-.08-.803-.243-.156-.163-.315-.434-.478-.813l-.936-2.112c-.257-.596-.522-.996-.793-1.199-.271-.203-.63-.304-1.078-.304-.447 0-.868.027-1.26.08v4.47c-.204.04-.452.06-.743.06-.292 0-.539-.02-.742-.06V30.505l.122-.122h.549c.325 0 .542.078.65.233.109.156.163.417.163.782v8.166l.875-.04c.19 0 .346-.095.468-.285l2.176-3.21c.176-.27.339-.463.488-.578a.84.84 0 0 1 .529-.173c.203 0 .495.014.874.04l.122.163-2.583 3.758a2.742 2.742 0 0 1-.488.569c.461.095.848.288 1.16.579.311.29.596.72.854 1.29zm5.27-4.936v8.572c-.203.04-.453.06-.752.06-.298 0-.549-.02-.752-.06v-7.841c0-.38-.061-.637-.183-.772s-.34-.203-.651-.203h-.183a1.613 1.613 0 0 1-.081-.549c0-.216.027-.406.081-.568.258-.027.468-.051.63-.071a3.3 3.3 0 0 1 .387-.03h.163c.42 0 .749.131.986.395s.356.62.356 1.067zm-1.992-4.875c.217-.136.529-.203.935-.203.394 0 .665.06.814.182.149.122.224.38.224.772 0 .393-.082.654-.245.782-.162.129-.427.193-.793.193-.325 0-.586-.05-.783-.152-.196-.102-.295-.376-.295-.823 0-.311.048-.562.143-.751zm12.898 6.48v5.037c0 .772.074 1.347.223 1.726-.216.217-.535.325-.955.325-.516 0-.773-.331-.773-.995v-5.627c0-.826-.102-1.411-.305-1.757-.204-.345-.59-.517-1.16-.517-.542 0-1.105.145-1.688.436a4.6 4.6 0 0 0-1.464 1.128v7.21c-.203.041-.454.061-.753.061-.298 0-.549-.02-.752-.06V35.4l.122-.122h.57c.325 0 .542.085.65.254.109.17.163.437.163.802v.285a5.455 5.455 0 0 1 1.627-1.046 4.766 4.766 0 0 1 1.871-.396c.909 0 1.573.29 1.993.873.42.582.63 1.347.63 2.295zm9.095-2.154c.19-.474.549-.806 1.077-.995.326.19.55.454.672.792-.38.366-.57 1.09-.57 2.174v6.378c0 .948-.085 1.753-.254 2.417-.17.663-.417 1.205-.742 1.625-.326.42-.73.724-1.21.914-.482.19-1.041.284-1.678.284-1.275 0-2.441-.23-3.499-.69.014-.474.156-.867.428-1.178.908.433 1.837.65 2.786.65.542 0 .99-.075 1.342-.224.353-.149.634-.366.844-.65a2.56 2.56 0 0 0 .437-1.026 6.8 6.8 0 0 0 .122-1.35v-1.179c-.88.894-1.87 1.341-2.969 1.341-1.098 0-1.946-.457-2.542-1.371-.597-.914-.895-2.19-.895-3.829 0-.826.105-1.56.315-2.204.21-.643.492-1.185.844-1.625a3.65 3.65 0 0 1 1.22-1.005c.462-.23.95-.346 1.465-.346 1.03 0 1.966.366 2.807 1.097zm-.245 6.48V37.41a4.504 4.504 0 0 0-1.2-.762 3.02 3.02 0 0 0-1.159-.254c-.759 0-1.37.329-1.83.985-.461.657-.692 1.642-.692 2.956 0 1.3.2 2.265.6 2.894.4.63.885.945 1.454.945.57 0 1.099-.139 1.587-.416.488-.278.902-.64 1.24-1.087zm13.37-7.333c.04.203.06.396.06.579 0 .183-.02.376-.06.579l-2.583-.02v6.825c0 .568.264.853.793.853h1.546c.095.23.142.46.142.69 0 .23-.013.373-.04.427-.624.081-1.268.122-1.933.122-1.315 0-1.972-.562-1.972-1.686v-7.231l-1.444.02a2.952 2.952 0 0 1-.061-.579c0-.183.02-.376.06-.579l1.445.02v-2.132c0-.366.054-.627.162-.782.109-.156.319-.234.63-.234h.55l.122.122v3.047l2.583-.04zm1.63.711c.096-.352.312-.636.651-.853.76.284 1.248.887 1.465 1.808.556-1.192 1.464-1.788 2.725-1.788.285 0 .597.027.936.081 0 .583-.116 1.057-.346 1.422-.163-.013-.4-.02-.712-.02-1.098 0-1.925.616-2.481 1.848v6.764c-.204.041-.454.061-.753.061-.298 0-.549-.02-.752-.06v-7.191c0-.921-.244-1.612-.732-2.072zm7.367 6.277v-5.058c0-.718-.082-1.293-.244-1.727.23-.216.549-.325.955-.325.516 0 .773.332.773.995v5.627c0 .853.109 1.449.326 1.788.217.338.596.507 1.139.507.542 0 1.105-.145 1.688-.436a4.6 4.6 0 0 0 1.464-1.128v-7.21c.081-.028.19-.048.326-.062a4.301 4.301 0 0 1 .844 0c.128.014.24.034.335.061v7.15c0 1.084.19 1.808.57 2.174-.122.379-.353.636-.692.772-.664-.217-1.091-.718-1.281-1.503a5.409 5.409 0 0 1-1.658 1.117 4.771 4.771 0 0 1-1.942.426c-.908 0-1.57-.29-1.983-.873-.414-.582-.62-1.348-.62-2.295zm18.104-1.544h-6.305c.068 2.302.943 3.453 2.624 3.453.922 0 1.905-.284 2.95-.853.297.27.48.616.548 1.036-1.112.758-2.359 1.137-3.742 1.137-.705 0-1.308-.132-1.81-.396a3.364 3.364 0 0 1-1.23-1.097 4.887 4.887 0 0 1-.702-1.655 9.169 9.169 0 0 1-.224-2.092c0-.772.092-1.476.275-2.113.183-.636.45-1.185.803-1.645a3.79 3.79 0 0 1 1.271-1.077c.495-.257 1.061-.386 1.698-.386.624 0 1.183.112 1.678.335.495.224.909.529 1.24.915.333.385.587.846.764 1.38a5.45 5.45 0 0 1 .264 1.717c0 .244-.01.478-.03.701-.02.223-.045.437-.072.64zm-6.305-1.158h4.882v-.264c0-.934-.197-1.686-.59-2.255-.393-.569-.983-.853-1.77-.853-.773 0-1.372.305-1.8.914-.427.61-.667 1.429-.722 2.458zm18.76-.752v-.223c0-.298-.041-.59-.123-.873a2.178 2.178 0 0 0-.376-.752 1.826 1.826 0 0 0-.65-.518c-.265-.129-.58-.193-.946-.193-.773 0-1.383.352-1.83 1.056-.448.704-.672 1.707-.672 3.007s.22 2.271.661 2.914c.44.644 1.04.965 1.8.965.8 0 1.715-.372 2.746-1.117.366.217.603.535.711.955-1.044.975-2.216 1.462-3.518 1.462-.65 0-1.22-.128-1.708-.386a3.765 3.765 0 0 1-1.241-1.046 4.552 4.552 0 0 1-.763-1.564 7.138 7.138 0 0 1-.254-1.94c0-.934.105-1.75.315-2.447.21-.698.502-1.273.875-1.727.373-.454.81-.792 1.312-1.016a3.904 3.904 0 0 1 1.606-.335c.583 0 1.092.092 1.526.275.434.182.796.416 1.088.7.291.285.512.596.66.935.15.338.224.656.224.954 0 .65-.264.975-.793.975-.19 0-.406-.02-.65-.06zm10.03 5.607c-.719.717-1.654 1.076-2.807 1.076-.678 0-1.278-.128-1.8-.386a3.82 3.82 0 0 1-1.322-1.066c-.36-.454-.63-1.002-.813-1.645a7.738 7.738 0 0 1-.275-2.123c0-.772.092-1.48.275-2.123.183-.643.454-1.195.813-1.655.36-.46.8-.82 1.322-1.077s1.122-.386 1.8-.386c.678 0 1.278.129 1.8.386.522.258.963.616 1.322 1.077.36.46.634 1.012.824 1.655.19.644.284 1.351.284 2.123 0 1.815-.474 3.196-1.423 4.144zm-2.787-.102c.868 0 1.53-.369 1.983-1.107.455-.738.682-1.716.682-2.935 0-.542-.051-1.06-.153-1.554a4.278 4.278 0 0 0-.478-1.3 2.55 2.55 0 0 0-.834-.884c-.339-.216-.745-.325-1.22-.325-.46 0-.857.105-1.19.315a2.52 2.52 0 0 0-.823.864 4.15 4.15 0 0 0-.478 1.29 7.909 7.909 0 0 0-.153 1.594c0 .569.051 1.097.153 1.584.101.488.257.914.467 1.28.21.366.485.653.824.863.34.21.746.315 1.22.315zm8.994-.223h.854c.054.122.091.257.112.406.02.149.03.284.03.406 0 .081-.003.146-.01.193a.839.839 0 0 0-.01.112c-.217.04-.427.074-.63.101-.204.028-.407.041-.61.041-.557 0-1.025-.125-1.404-.376-.38-.25-.57-.694-.57-1.33V30.505l.122-.122h.55c.325 0 .542.078.65.233.109.156.163.417.163.782v11.883c0 .583.25.874.753.874zm9.38.325c-.72.717-1.655 1.076-2.808 1.076-.678 0-1.277-.128-1.8-.386a3.82 3.82 0 0 1-1.321-1.066c-.36-.454-.631-1.002-.814-1.645a7.738 7.738 0 0 1-.275-2.123c0-.772.092-1.48.275-2.123.183-.643.454-1.195.814-1.655.359-.46.8-.82 1.322-1.077s1.121-.386 1.8-.386c.677 0 1.277.129 1.8.386.521.258.962.616 1.321 1.077.36.46.634 1.012.824 1.655.19.644.285 1.351.285 2.123 0 1.815-.475 3.196-1.424 4.144zm-2.787-.102c.868 0 1.529-.369 1.983-1.107.454-.738.681-1.716.681-2.935 0-.542-.05-1.06-.152-1.554a4.278 4.278 0 0 0-.478-1.3 2.55 2.55 0 0 0-.834-.884c-.34-.216-.746-.325-1.22-.325-.462 0-.858.105-1.19.315a2.52 2.52 0 0 0-.824.864 4.15 4.15 0 0 0-.478 1.29 7.909 7.909 0 0 0-.153 1.594c0 .569.051 1.097.153 1.584.102.488.258.914.468 1.28.21.366.485.653.823.863.34.21.746.315 1.22.315zm6.247-8.328c.095-.352.312-.636.651-.853.76.284 1.247.887 1.464 1.808.556-1.192 1.465-1.788 2.726-1.788.284 0 .596.027.935.081 0 .583-.115 1.057-.346 1.422-.162-.013-.4-.02-.711-.02-1.099 0-1.926.616-2.482 1.848v6.764c-.203.041-.454.061-.752.061s-.55-.02-.753-.06v-7.191c0-.921-.244-1.612-.732-2.072zm6.43 8.49c.014-.42.21-.785.59-1.096.61.352 1.156.596 1.638.731.481.135.918.203 1.312.203.339 0 .633-.044.884-.132.251-.088.465-.203.64-.345.177-.142.313-.302.408-.478.095-.176.149-.352.162-.528 0-.406-.125-.748-.376-1.025-.25-.278-.62-.512-1.108-.701l-1.14-.447c-.867-.339-1.518-.735-1.952-1.188a2.281 2.281 0 0 1-.65-1.636c0-.42.088-.802.264-1.147.176-.346.42-.64.732-.884a3.515 3.515 0 0 1 1.098-.569 4.49 4.49 0 0 1 1.383-.203c1.004 0 2.007.224 3.01.67 0 .475-.156.867-.467 1.179a7.494 7.494 0 0 0-1.414-.488 5.436 5.436 0 0 0-1.17-.142c-.623 0-1.094.142-1.413.427-.319.284-.478.609-.478.975 0 .392.122.7.366.924.244.223.63.437 1.16.64l1.2.467c1.68.663 2.521 1.645 2.521 2.945 0 .907-.345 1.612-1.037 2.113-.691.5-1.627.751-2.807.751-1.152 0-2.27-.338-3.355-1.015z"/>
            <path fill="url(#a)" fill-rule="nonzero" d="M81.344 25.869c-2.324 0-4.33-.623-6.013-1.868-1.68-1.244-2.884-2.96-3.613-5.144l-.08-.238 5-1.872.103.217c.517 1.098 1.192 1.97 2.027 2.623.822.642 1.723.96 2.71.96 1.043 0 1.85-.193 2.426-.573.549-.362.817-.874.817-1.566 0-.432-.193-.818-.595-1.17a4.435 4.435 0 0 0-1.355-.836 51.438 51.438 0 0 0-2.308-.78 61.936 61.936 0 0 1-1.56-.518c-.349-.124-.848-.32-1.497-.588-.66-.273-1.163-.524-1.513-.758a16.978 16.978 0 0 1-1.221-.914c-.491-.397-.863-.816-1.114-1.257a7.607 7.607 0 0 1-.64-1.553 6.736 6.736 0 0 1-.279-1.959c0-1.943.768-3.581 2.293-4.897 1.52-1.31 3.572-1.963 6.145-1.963 2.147 0 3.96.561 5.432 1.687 1.47 1.123 2.448 2.572 2.93 4.338l.065.24-5 1.615-.094-.215c-.693-1.572-1.879-2.345-3.6-2.345-1.764 0-2.576.544-2.576 1.64 0 .23.069.428.21.604.149.186.441.387.876.594.461.22.838.383 1.13.491.299.11.826.3 1.577.564.803.267 1.422.479 1.858.635.44.158 1.04.398 1.8.722.779.332 1.396.69 1.852 1.075.443.374.901.82 1.376 1.34.493.54.852 1.173 1.074 1.899.22.714.329 1.495.329 2.343 0 2.279-.86 4.099-2.57 5.438-1.695 1.327-3.832 1.989-6.402 1.989zm16.018-5.343c.574.48 1.304.722 2.202.722 1.48 0 2.686-.566 3.638-1.706l.183-.22 3.173 3.17-.152.182c-1.763 2.127-4.05 3.195-6.842 3.195-2.584 0-4.635-.817-6.133-2.451-1.494-1.63-2.238-3.882-2.238-6.743 0-2.795.75-5.024 2.254-6.675C94.956 8.343 97 7.515 99.564 7.515c2.335 0 4.247.713 5.722 2.14 1.479 1.43 2.215 3.499 2.215 6.187 0 1.1-.045 1.946-.137 2.54l-.034.22H96.472c.082.86.38 1.496.89 1.924zm4.934-6.078c-.295-1.56-1.252-2.313-2.932-2.313-.806 0-1.456.228-1.962.684-.446.4-.736.94-.87 1.629h5.764zm16.18-6.933c1.642 0 3.08.521 4.308 1.561 1.244 1.056 1.86 2.751 1.86 5.066v11.327h-5.36v-9.127c0-1.331-.197-2.279-.574-2.838-.358-.533-.97-.802-1.87-.802-.97 0-1.654.28-2.079.832-.437.569-.663 1.482-.663 2.741v9.194h-5.361V7.915h5.36v1.167c1.103-1.045 2.568-1.567 4.38-1.567zm14.34 18.354a9.882 9.882 0 0 1-4.147-.907c-1.33-.607-2.357-1.42-3.075-2.437l-.137-.194 3.469-2.943.17.17c.448.447 1.029.866 1.742 1.255.697.38 1.4.568 2.112.568 1.455 0 2.109-.368 2.109-1.073 0-.304-.156-.551-.495-.762-.393-.244-1.143-.578-2.232-.99-2.142-.722-3.704-1.496-4.69-2.332-1.019-.863-1.528-2.076-1.528-3.616 0-1.573.647-2.83 1.928-3.745 1.26-.9 2.82-1.348 4.674-1.348 2.655 0 4.862.975 6.603 2.92l.181.202-3.523 2.882-.166-.152c-1-.914-2.03-1.365-3.095-1.365-1.21 0-1.742.292-1.742.84 0 .509 1.037 1.088 3.16 1.62.808.268 1.478.521 2.01.759.538.24 1.125.582 1.76 1.024a4.552 4.552 0 0 1 1.503 1.714c.342.682.512 1.466.512 2.35 0 1.746-.654 3.123-1.956 4.107-1.284.97-3.002 1.453-5.147 1.453zm11.236-19.067c-.825 0-1.547-.3-2.151-.891-.606-.593-.913-1.31-.913-2.136 0-.826.3-1.537.896-2.12.594-.58 1.322-.874 2.168-.874.846 0 1.568.287 2.152.858.584.572.88 1.289.88 2.136 0 .824-.295 1.54-.876 2.132-.584.595-1.307.895-2.156.895zm-2.697 1.113h5.361v17.554h-5.36V7.915zm17.37-.4c1.642 0 3.082.521 4.308 1.561 1.245 1.056 1.861 2.751 1.861 5.066v11.327h-5.36v-9.127c0-1.331-.197-2.279-.574-2.838-.358-.533-.971-.802-1.87-.802-.97 0-1.654.28-2.079.832-.438.569-.664 1.482-.664 2.741v9.194h-5.36V7.915h5.36v1.167c1.103-1.045 2.568-1.567 4.379-1.567zm17.885.4h5.36v14.327c0 1.342-.05 2.457-.151 3.346a10.1 10.1 0 0 1-.65 2.6c-.34.851-.822 1.532-1.447 2.04-.616.498-1.423.913-2.418 1.244-.99.33-2.195.55-3.617.663l-.152.012-3.101-4.628.44-.037c2.353-.197 3.917-.471 4.671-.811.562-.253.903-.764 1.02-1.56-.778.507-1.813.758-3.099.758-2.234 0-4.026-.8-5.356-2.394-1.323-1.586-1.98-3.855-1.98-6.8 0-2.767.668-4.986 2.01-6.647 1.352-1.673 3.134-2.513 5.326-2.513 1.284 0 2.335.28 3.144.846v-.446zm0 5.735l-.174-.174a2.362 2.362 0 0 0-.327-.284 4.242 4.242 0 0 0-.423-.234 2.215 2.215 0 0 0-.627-.193 5.264 5.264 0 0 0-.858-.063c-.851 0-1.5.327-1.974.99-.488.684-.736 1.677-.736 2.983 0 2.717.898 4.006 2.71 4.006 1.066 0 1.863-.292 2.409-.873V13.65z"/>
            <path fill="#B312D4" d="M13.788 10.1c0-.711-.083-1.394-.25-2.05a4.8 4.8 0 0 0-.818-1.733c-.378-.5-.868-.9-1.468-1.2-.601-.3-1.335-.45-2.203-.45-1.713 0-3.015.766-3.905 2.3-.89 1.533-1.335 3.733-1.335 6.6 0 2.844.478 5.016 1.435 6.516.957 1.5 2.37 2.25 4.239 2.25 1.869 0 3.816-.844 5.84-2.533.913.6 1.502 1.367 1.77 2.3a9.681 9.681 0 0 1-1.686 1.333c-.634.4-1.302.75-2.003 1.05-.7.3-1.424.534-2.169.7-.745.167-1.474.25-2.186.25-1.713 0-3.149-.327-4.306-.983-1.157-.656-2.063-1.522-2.72-2.6-.656-1.078-1.146-2.322-1.468-3.733a19.606 19.606 0 0 1-.484-4.384c0-2 .234-3.744.7-5.233.468-1.489 1.108-2.728 1.92-3.717.812-.989 1.763-1.733 2.853-2.233 1.09-.5 2.248-.75 3.472-.75 1.268 0 2.408.178 3.42.533 1.013.356 1.88.834 2.604 1.434.723.6 1.274 1.289 1.652 2.066.378.778.567 1.6.567 2.467 0 1.333-.667 2-2.002 2-.423 0-.913-.067-1.469-.2zm17.047 13.5c-1.224 1.222-2.837 1.833-4.84 1.833-1.157 0-2.18-.205-3.07-.616-.89-.411-1.641-1-2.253-1.767-.612-.767-1.08-1.678-1.402-2.733-.323-1.056-.484-2.24-.484-3.55 0-1.29.161-2.467.484-3.534.323-1.066.79-1.983 1.402-2.75a6.137 6.137 0 0 1 2.253-1.766c.89-.411 1.913-.617 3.07-.617 1.157 0 2.18.206 3.07.617.89.41 1.642 1 2.254 1.766.611.767 1.079 1.684 1.401 2.75.323 1.067.484 2.245.484 3.534 0 2.977-.79 5.255-2.37 6.833zm-4.84-12.867c-2.425 0-3.638 2.011-3.638 6.034 0 4.022 1.213 6.033 3.638 6.033 2.448 0 3.672-2.011 3.672-6.033 0-4.023-1.224-6.034-3.672-6.034zm14.877 11.7h1.235c.2.556.3 1.045.3 1.467 0 .422-.033.756-.1 1-.89.156-1.835.233-2.836.233-2.203 0-3.305-1.144-3.305-3.433V.7L36.4.5h1.302c.69 0 1.173.172 1.451.517.279.344.418.905.418 1.683v18.233c0 1 .434 1.5 1.301 1.5zm14.71 1.167c-1.223 1.222-2.836 1.833-4.839 1.833-1.157 0-2.18-.205-3.07-.616-.89-.411-1.641-1-2.253-1.767-.612-.767-1.08-1.678-1.402-2.733-.323-1.056-.484-2.24-.484-3.55 0-1.29.161-2.467.484-3.534.323-1.066.79-1.983 1.402-2.75a6.137 6.137 0 0 1 2.253-1.766c.89-.411 1.913-.617 3.07-.617 1.157 0 2.18.206 3.07.617.89.41 1.642 1 2.253 1.766.612.767 1.08 1.684 1.402 2.75.323 1.067.484 2.245.484 3.534 0 2.977-.79 5.255-2.37 6.833zm-4.839-12.867c-2.425 0-3.638 2.011-3.638 6.034 0 4.022 1.213 6.033 3.638 6.033 2.448 0 3.671-2.011 3.671-6.033 0-4.023-1.223-6.034-3.67-6.034zm9.303-.6c.223-.822.646-1.433 1.269-1.833 1.535.333 2.547 1.322 3.037 2.967.89-1.978 2.347-2.967 4.372-2.967.534 0 1.124.067 1.769.2 0 1.289-.278 2.378-.834 3.267-.2-.067-.657-.123-1.369-.167-1.513 0-2.703.844-3.571 2.533V25c-.423.089-.996.133-1.719.133-.723 0-1.296-.044-1.719-.133V13.567c0-1.511-.411-2.656-1.235-3.434z"/>
        </g>
    </g>
</svg>