<?xml version="1.0" encoding="utf-8"?>
<!-- Generator: Adobe Illustrator 28.0.0, SVG Export Plug-In . SVG Version: 6.00 Build 0)  -->
<svg version="1.1" id="Capa_1" xmlns="http://www.w3.org/2000/svg" xmlns:xlink="http://www.w3.org/1999/xlink" x="0px" y="0px"
	 viewBox="0 0 394 161" style="enable-background:new 0 0 394 161;" xml:space="preserve">
<style type="text/css">
	.st0{fill:#70CC0A;}
	.st1{fill:#404040;}
</style>
<g>
	<g>
		<g>
			<path class="st0" d="M333.2,40.1c-33.4-8.8-31.4-26.5-20.5-30.4c26-9.5,78.1,34.2,71.6,79.8c-3.6,25.4-20,34-20,34
				C382.7,107.5,392.4,55.8,333.2,40.1"/>
		</g>
		<g>
			<path class="st0" d="M59,117.8c33.4,8.8,31.4,26.5,20.5,30.4c-26,9.5-78.1-34.2-71.6-79.8c3.6-25.4,20-34,20-34
				C9.4,50.5-0.3,102.2,59,117.8"/>
		</g>
		<g>
			<path class="st1" d="M64.2,54.7v18.6h20.5V54.7h9.9v47.7h-9.9v-21H64.2v21h-9.8V54.7H64.2z"/>
			<path class="st1" d="M120.7,54.7c10,0,15.2,5.3,15.2,14.6c0,10-4.8,14.9-16,14.9h-9.2v18.2h-9.8V54.7H120.7z M110.7,76.1h8.5
				c4.2,0,6.9-2,6.9-6.7c0-4.1-2-6.5-6.9-6.5h-8.5V76.1z"/>
			<path class="st1" d="M170.1,70.7c-0.9-4.8-3.7-7.7-9.9-7.7c-6.1,0-10.8,4.9-10.8,15.7c0,11,5.1,15.1,10.9,15.1
				c5.1,0,8.8-2.9,9.8-8.2h9.8c-0.5,6.7-5.6,16.7-19.4,16.7c-11.8,0-21.2-7.4-21.2-23.7c0-16.5,9.2-24.1,21.4-24.1
				c13.1,0,19,8.3,19.3,16.2H170.1z"/>
		</g>
		<g>
			<path class="st1" d="M337.7,57.4v11.1l-2.6,21.2h-4.7l-2.6-21.2V57.4H337.7z M337.4,93.2v9.1H328v-9.1H337.4z"/>
		</g>
		<g>
			<path class="st1" d="M198.8,61.7v38.9c0,0.9-0.7,1.6-1.6,1.6c-0.9,0-1.6-0.7-1.6-1.6V57c-0.2-0.7,0-1.4,0.6-1.8
				c0.7-0.5,1.8-0.3,2.3,0.4l28.8,40V56.8c0-0.9,0.7-1.6,1.6-1.6c1,0,1.7,0.7,1.7,1.6v43.8c0,0.9-0.7,1.6-1.7,1.6
				c-0.5,0-1-0.2-1.3-0.6c-0.1-0.1-0.2-0.1-0.3-0.3L198.8,61.7z"/>
			<path class="st1" d="M251.5,69c8.8,0,15.8,7.6,15.8,16.6c0,9-7,16.6-15.8,16.6c-8.7,0-15.8-7.6-15.8-16.6
				C235.7,76.6,242.8,69,251.5,69z M251.5,99c6.8,0,12.5-6,12.5-13.4c0-7.4-5.7-13.5-12.5-13.5c-6.8,0-12.5,6-12.5,13.5
				C239,93.1,244.7,99,251.5,99z"/>
			<path class="st1" d="M282.4,102c-0.3-0.1-0.5-0.4-0.7-0.7l-12.5-29.8c-0.3-0.8,0.1-1.8,0.8-2.1c0.8-0.3,1.8,0.1,2.1,0.9
				l11.1,26.2l7.7-18.3c0.3-0.6,0.9-1,1.6-1c0.7,0,1.4,0.4,1.6,1l7.7,18.3l11-26.2c0.3-0.8,1.4-1.2,2.1-0.9c0.8,0.3,1.2,1.3,0.9,2.1
				l-12.4,29.6c-0.1,0.3-0.3,0.6-0.6,0.8c-0.3,0.2-0.5,0.3-0.8,0.3h-0.1h-0.2c-0.5-0.1-1.2-0.5-1.3-1l-0.1-0.1l-7.7-18.4l-7.7,18.3
				c0,0-0.1,0.1-0.1,0.1c-0.2,0.6-0.9,1-1.4,1c-0.2,0-0.4-0.1-0.6-0.1C282.6,102.2,282.5,102.1,282.4,102z"/>
		</g>
	</g>
	<g>
		<path class="st1" d="M110.3,153.1h-0.1c-0.4,0-0.7-0.4-0.7-0.8v-21.4c0-0.4,0.4-0.8,0.8-0.8h0.1h4.2c6.3,0,11.5,5.2,11.5,11.5
			c0,6.3-5.1,11.4-11.5,11.4H110.3z M114.5,151.5c5.4,0,9.9-4.4,9.9-9.8c0-5.5-4.4-9.9-9.9-9.9h-3.5v19.7H114.5z"/>
		<path class="st1" d="M138.2,137c4.2,0,7.6,3.7,7.6,8s-3.4,8-7.6,8c-4.2,0-7.6-3.7-7.6-8S134,137,138.2,137z M138.2,151.5
			c3.3,0,6-2.9,6-6.5s-2.8-6.5-6-6.5s-6,2.9-6,6.5S134.9,151.5,138.2,151.5z"/>
		<path class="st1" d="M159.6,130.9c0-0.4,0.4-0.8,0.8-0.8c0.5,0,0.8,0.4,0.8,0.8v21.4c0,0.4-0.4,0.8-0.8,0.8
			c-0.4,0-0.8-0.4-0.8-0.8V130.9z"/>
		<path class="st1" d="M174,131.7h-6.9c-0.4,0-0.8-0.4-0.8-0.8c0-0.4,0.4-0.8,0.8-0.8h15.4c0.4,0,0.8,0.4,0.8,0.8
			c0,0.5-0.4,0.8-0.8,0.8h-6.9v20.5c0,0.4-0.4,0.8-0.8,0.8s-0.8-0.4-0.8-0.8V131.7z"/>
		<path class="st1" d="M198.2,133.5v18.8c0,0.4-0.4,0.8-0.8,0.8s-0.8-0.4-0.8-0.8v-21c-0.1-0.3,0-0.7,0.3-0.9
			c0.4-0.2,0.9-0.2,1.1,0.2l13.9,19.3v-18.7c0-0.4,0.4-0.8,0.8-0.8c0.5,0,0.8,0.4,0.8,0.8v21.1c0,0.4-0.4,0.8-0.8,0.8
			c-0.3,0-0.5-0.1-0.6-0.3c0,0-0.1-0.1-0.1-0.1L198.2,133.5z"/>
		<path class="st1" d="M227,137c4.2,0,7.6,3.7,7.6,8s-3.4,8-7.6,8c-4.2,0-7.6-3.7-7.6-8S222.8,137,227,137z M227,151.5
			c3.3,0,6-2.9,6-6.5s-2.8-6.5-6-6.5s-6,2.9-6,6.5S223.7,151.5,227,151.5z"/>
		<path class="st1" d="M243.3,152.9c-0.2-0.1-0.3-0.2-0.3-0.4l-6-14.3c-0.2-0.4,0-0.9,0.4-1c0.4-0.2,0.9,0,1,0.4l5.3,12.6l3.7-8.8
			c0.1-0.3,0.5-0.5,0.8-0.5c0.3,0,0.7,0.2,0.8,0.5l3.7,8.8l5.3-12.6c0.2-0.4,0.7-0.6,1-0.4c0.4,0.2,0.6,0.6,0.4,1l-6,14.3
			c-0.1,0.2-0.2,0.3-0.3,0.4c-0.1,0.1-0.3,0.2-0.4,0.2h-0.1h-0.1c-0.3,0-0.6-0.2-0.6-0.5l0,0l-3.7-8.9l-3.7,8.8c0,0,0,0,0,0.1
			c-0.1,0.3-0.4,0.5-0.7,0.5c-0.1,0-0.2,0-0.3-0.1C243.4,153,243.4,153,243.3,152.9z"/>
		<path class="st1" d="M286.3,147.1h-10.5l-2,5.4c-0.1,0.3-0.4,0.5-0.8,0.5c-0.1,0-0.2,0-0.3,0c-0.4-0.2-0.6-0.7-0.5-1l8-21.3
			c0.1-0.3,0.5-0.5,0.8-0.5c0.4,0,0.7,0.2,0.8,0.5l8,21.3c0.2,0.4,0,0.9-0.4,1c-0.1,0-0.2,0-0.3,0c-0.3,0-0.6-0.2-0.8-0.5
			L286.3,147.1z M276.4,145.5h9.3l-4.6-12.3L276.4,145.5z"/>
		<path class="st1" d="M293.5,130.9c0-0.4,0.4-0.8,0.8-0.8c0.5,0,0.8,0.4,0.8,0.8v21.4c0,0.4-0.4,0.8-0.8,0.8
			c-0.4,0-0.8-0.4-0.8-0.8V130.9z"/>
		<path class="st1" d="M300.3,130.9c0-0.4,0.4-0.8,0.8-0.8c0.5,0,0.8,0.4,0.8,0.8v21.4c0,0.4-0.4,0.8-0.8,0.8
			c-0.4,0-0.8-0.4-0.8-0.8V130.9z"/>
		<path class="st1" d="M307,132.6c0-0.4,0.4-0.8,0.8-0.8c0.5,0,0.8,0.4,0.8,0.8v0.8c0,0.5-0.4,0.9-0.8,0.9c-0.4,0-0.8-0.4-0.8-0.9
			V132.6z M307,137.8c0-0.5,0.4-0.8,0.8-0.8c0.5,0,0.8,0.3,0.8,0.8v14.5c0,0.4-0.4,0.8-0.8,0.8c-0.4,0-0.8-0.4-0.8-0.8V137.8z"/>
		<path class="st1" d="M328.3,137.8v14.5c0,0.4-0.4,0.8-0.8,0.8c-0.4,0-0.8-0.4-0.8-0.8v-2.4c-1.4,1.9-3.6,3.2-6,3.2
			c-4.2,0-7.6-3.6-7.6-8s3.4-8,7.6-8c2.5,0,4.7,1.2,6,3.1v-2.4c0-0.5,0.4-0.8,0.8-0.8C327.9,137,328.3,137.3,328.3,137.8z
			 M326.7,145c0-3.6-2.7-6.5-6-6.5c-3.3,0-6,2.9-6,6.5s2.8,6.5,6,6.5C324,151.5,326.7,148.6,326.7,145z"/>
		<path class="st1" d="M344.9,143.6c0-2.7-2.2-4.9-4.9-4.9c-2.7,0-4.9,2.2-5,4.9v8.7v0.1c0,0.1-0.1,0.3-0.2,0.4
			c-0.1,0.2-0.4,0.3-0.6,0.3h-0.2c-0.2-0.1-0.4-0.2-0.5-0.4c0,0,0-0.1,0-0.1c0,0,0-0.1,0-0.1v-0.2v-8.7v-0.3v-5.5
			c0-0.4,0.3-0.8,0.8-0.8c0.4,0,0.8,0.4,0.8,0.8v1.5c1.2-1.4,3-2.3,5-2.3c3.6,0,6.5,2.9,6.5,6.5v8.7c0,0.5-0.4,0.8-0.8,0.8
			c-0.4,0-0.8-0.3-0.8-0.8V143.6z"/>
		<path class="st1" d="M351.1,145c0-4.5,3.7-8,8.3-8c1.9,0,3.7,0.7,5.1,1.8c0.3,0.2,0.4,0.7,0.1,1.1c-0.3,0.3-0.7,0.4-1.1,0.1
			c-1.1-0.9-2.6-1.4-4.1-1.4c-3.7,0-6.7,2.9-6.7,6.5c0,3.6,2.9,6.5,6.7,6.5c1.5,0,3-0.5,4.1-1.4c0.4-0.3,0.8-0.2,1.1,0.1
			c0.3,0.4,0.2,0.9-0.2,1.1c-1.3,1-3.1,1.7-5,1.7C354.8,153.1,351.1,149.5,351.1,145z"/>
		<path class="st1" d="M368,145.1c0-4.5,3.5-8.1,7.8-8.1c4.1,0,7.4,3.3,7.7,7.5v0v0.1c0,0.4-0.4,0.7-0.8,0.7h-13.2
			c0.2,3.5,2.9,6.2,6.2,6.2c2.1,0,4.1-1.1,5.2-2.9c0.2-0.4,0.7-0.5,1-0.3c0.4,0.3,0.5,0.7,0.3,1.1c-1.4,2.2-3.8,3.6-6.5,3.6
			C371.5,153.1,368,149.5,368,145.1z M369.7,143.8h12.2c-0.5-3-3.1-5.2-6-5.2C372.8,138.6,370.3,140.7,369.7,143.8z"/>
	</g>
</g>
</svg>
