<svg id="Capa_1" data-name="Capa 1" xmlns="http://www.w3.org/2000/svg" viewBox="0 0 347.7 136.87"><defs><style>.cls-1{fill:#30b9cf;}.cls-2{fill:#33bacf;}</style></defs><title>coopdevs_logo_hrz_software_lliure</title><g id="Text"><path class="cls-1" d="M195.71,6.73v68H371v-68Zm48.52,44c-2.54,6.94-7.8,11.09-15.47,11.74-6.3.53-12.68.28-19,.34a1.92,1.92,0,0,1-2.12-1.8,17.18,17.18,0,0,1-.15-1.89q0-9.22,0-18.45V22.21a15.06,15.06,0,0,1,.16-1.89,1.81,1.81,0,0,1,1.89-1.71c6.81.1,13.69-.23,20.42.56,8.58,1,13.35,6.52,15.11,14.29a30.06,30.06,0,0,1-.83,17.26Zm36,10.24c-.09,1.28-.84,1.89-2.27,1.88-7.64,0-15.28,0-22.92,0-2.11,0-2.85-.69-2.87-2.69,0-3.17,0-6.33,0-9.5V21.86c0-2.76.58-3.31,3.53-3.31h21.77c2.18,0,2.7.47,2.77,2.53,0,1.08,0,2.17,0,3.26-.07,2-.68,2.54-2.82,2.55H262.57v9c.54,0,1,.07,1.55.07h11.75c1.84,0,2.53.58,2.64,2.31a29.8,29.8,0,0,1,0,3.66c-.1,1.8-.78,2.38-2.71,2.38H262.6V54.48h14.79c2.21,0,2.76.39,3,2.43a22.88,22.88,0,0,1-.08,4.05Zm45-39.34q-3,8.41-6,16.83C316.7,45.9,314,53.34,311.42,60.8a2.6,2.6,0,0,1-2.64,2c-2.14,0-4.28,0-6.42,0A2.46,2.46,0,0,1,299.89,61q-7-19.8-14-39.57c-.73-2.06-.37-2.67,1.89-2.83a48.76,48.76,0,0,1,5.27,0,2.89,2.89,0,0,1,2.83,2.26q4.51,13.85,9.1,27.68c.14.41.3.81.6,1.61,2.37-7,4.6-13.57,6.84-20.15,1-3.05,2.11-6.09,3.1-9.16a2.92,2.92,0,0,1,2.86-2.24,39.08,39.08,0,0,1,4.84,0c2.52.2,2.87.79,2.06,3.08Zm34,29.9c-1,7.68-7.09,12-17,11.8a28.44,28.44,0,0,1-9.37-1.85,6.32,6.32,0,0,1-.65-.27c-1.55-.86-3.62-1.5-3.65-3.46,0-2.17,1.42-3.9,3.2-5.21a2.42,2.42,0,0,1,1.84,0c1.43.5,2.77,1.22,4.18,1.75a12.48,12.48,0,0,0,7.85.3,3.76,3.76,0,0,0,3-3.24,3.72,3.72,0,0,0-2-4.05c-1.6-.88-3.34-1.54-5-2.38-2.67-1.37-5.65-2.42-7.9-4.26-7.9-6.45-5.26-18.38,4.63-21.53a23.6,23.6,0,0,1,15.15.28c3.94,1.36,4.53,3.06,2.43,6.5-1.29,2.12-1.94,2.31-4.36,1.46a15.82,15.82,0,0,0-8.3-.67c-1.56.3-2.84,1-3.22,2.54a3.62,3.62,0,0,0,1.62,4.2c1.88,1.13,3.93,2,5.93,3,1.53.73,3.13,1.35,4.64,2.11a12.17,12.17,0,0,1,6.89,13Z" transform="translate(-23.46 -6.73)"/><path class="cls-2" d="M135.28,19.25a25.15,25.15,0,0,0-11.37-1c-7.7,1-12.94,5-15.39,12.36a33.88,33.88,0,0,0-.88,16.7,19.53,19.53,0,0,0,4.82,10.26c4,4.32,9.19,5.62,14.84,5.67.63,0,1.27,0,1.9,0s1.16-.13,1.75-.21c7.48-.93,12.64-4.87,15.05-12a32.63,32.63,0,0,0,.22-20.1c-1.69-5.65-5.24-9.74-10.94-11.68ZM136,49.47c-1.83,4-5,5.68-9.38,5.47a8.57,8.57,0,0,1-8.22-6,23.74,23.74,0,0,1,0-16.57,8.59,8.59,0,0,1,8.1-6c4.3-.26,7.59,1.31,9.47,5.34a22.32,22.32,0,0,1,1.65,8.84,23,23,0,0,1-1.6,8.87Z" transform="translate(-23.46 -6.73)"/><path class="cls-2" d="M88.66,19.25a25.15,25.15,0,0,0-11.37-1c-7.7,1-12.94,5-15.39,12.36A33.88,33.88,0,0,0,61,47.32a19.53,19.53,0,0,0,4.82,10.26c4,4.32,9.19,5.62,14.84,5.67.63,0,1.27,0,1.9,0s1.16-.13,1.75-.21c7.48-.93,12.64-4.87,15-12a32.63,32.63,0,0,0,.22-20.1c-1.69-5.65-5.24-9.74-10.94-11.68Zm.75,30.22c-1.83,4-5,5.68-9.38,5.47a8.57,8.57,0,0,1-8.22-6,23.74,23.74,0,0,1,0-16.57,8.59,8.59,0,0,1,8.1-6c4.3-.26,7.59,1.31,9.47,5.34A22.32,22.32,0,0,1,91,40.6a23,23,0,0,1-1.6,8.87Z" transform="translate(-23.46 -6.73)"/><path class="cls-2" d="M178.34,20.5a19,19,0,0,0-8-1.92c-4.61,0-9.23,0-13.84,0-2.25,0-2.9.66-2.91,2.91V60.21c0,1.64.56,2.39,2.18,2.51a36.94,36.94,0,0,0,5.26,0c1.79-.12,2.31-.81,2.31-2.63V46.22c2,0,4,.14,5.83,0a29.35,29.35,0,0,0,6.63-1.09c4.41-1.45,7.55-4.45,8.27-9.15a29.84,29.84,0,0,0-.13-8.17,9.08,9.08,0,0,0-5.64-7.27Zm-3.91,13.3a4.34,4.34,0,0,1-4.16,4c-2.23.18-4.48,0-6.81,0V26.68c2.46.11,4.81.05,7.12.36,3,.41,4.51,3.26,3.85,6.77Z" transform="translate(-23.46 -6.73)"/><path class="cls-1" d="M56.63,53.52a2,2,0,0,0-2.83-.7A20.71,20.71,0,0,1,44.24,55c-5-.15-8.37-2.65-9.67-7.5a27.2,27.2,0,0,1-.22-12.87c1-4.92,4.15-7.73,8.88-8.13a19.4,19.4,0,0,1,8.91,1.28c2.28.91,2.81.79,4.16-1.23,2.78-4.16,2.47-5.54-2.37-7.1a29.78,29.78,0,0,0-15.53-.75c-7.24,1.53-11.88,5.91-13.6,13.1-.7,2.92-.93,6-1.34,8.63.38,3,.56,5.75,1.08,8.39C26,56.3,30.45,61.08,38.08,62.66a31.32,31.32,0,0,0,13.32-.14,24.81,24.81,0,0,0,5.21-1.83c1.23-.58,2.38-1.65,1.92-3.21a16.41,16.41,0,0,0-1.92-4Z" transform="translate(-23.46 -6.73)"/></g><path d="M35.19,107.72a18.41,18.41,0,0,1-3-.24,14.7,14.7,0,0,1-2.74-.75,10.12,10.12,0,0,1-2.31-1.22,1.67,1.67,0,0,1-.61-.72,1.42,1.42,0,0,1,.26-1.55,1.24,1.24,0,0,1,.68-.37,1.19,1.19,0,0,1,.86.27,10.93,10.93,0,0,0,3.18,1.48,13.68,13.68,0,0,0,3.68.46,7.06,7.06,0,0,0,4.28-1,3.34,3.34,0,0,0,1.36-2.77,2.71,2.71,0,0,0-1-2.23,7.86,7.86,0,0,0-3.34-1.27L33,97a9.11,9.11,0,0,1-4.63-2.18,5.41,5.41,0,0,1-1.54-4A6.29,6.29,0,0,1,27.47,88a6.45,6.45,0,0,1,1.78-2.19A8.28,8.28,0,0,1,32,84.36a11.59,11.59,0,0,1,3.49-.49,12.65,12.65,0,0,1,3.84.56,10.5,10.5,0,0,1,3.25,1.65,1.41,1.41,0,0,1,.53.71,1.57,1.57,0,0,1,.05.8,1.26,1.26,0,0,1-.36.66,1.09,1.09,0,0,1-.7.3,1.46,1.46,0,0,1-.9-.3,9.46,9.46,0,0,0-2.71-1.33,10.44,10.44,0,0,0-3-.42A7.46,7.46,0,0,0,32.5,87a4.4,4.4,0,0,0-1.91,1.47,3.68,3.68,0,0,0-.68,2.2,3.06,3.06,0,0,0,.93,2.37,6.62,6.62,0,0,0,3.1,1.32l3.46.7a10.55,10.55,0,0,1,4.9,2.12,4.91,4.91,0,0,1,1.6,3.85,5.9,5.9,0,0,1-2.34,4.83,8.09,8.09,0,0,1-2.74,1.36A13.14,13.14,0,0,1,35.19,107.72Z" transform="translate(-23.46 -6.73)"/><path d="M54.93,107.72a8.06,8.06,0,0,1-4.13-1,6.82,6.82,0,0,1-2.7-2.9,9.63,9.63,0,0,1-1-4.42,10.32,10.32,0,0,1,.54-3.45,7.52,7.52,0,0,1,1.57-2.63,6.78,6.78,0,0,1,2.46-1.66,8.47,8.47,0,0,1,3.22-.58,8,8,0,0,1,4.12,1A6.94,6.94,0,0,1,61.76,95a9.5,9.5,0,0,1,1,4.41,10.47,10.47,0,0,1-.54,3.46,7.42,7.42,0,0,1-1.57,2.64,6.8,6.8,0,0,1-2.46,1.67A8.62,8.62,0,0,1,54.93,107.72Zm0-2.37a4.48,4.48,0,0,0,2.52-.7,4.35,4.35,0,0,0,1.65-2,8.06,8.06,0,0,0,.58-3.26A6.67,6.67,0,0,0,58.39,95a4.31,4.31,0,0,0-3.46-1.52,4.61,4.61,0,0,0-2.5.68,4.42,4.42,0,0,0-1.66,2,7.89,7.89,0,0,0-.6,3.27,6.65,6.65,0,0,0,1.31,4.43A4.29,4.29,0,0,0,54.93,105.35Z" transform="translate(-23.46 -6.73)"/><path d="M69.38,107.66a1.49,1.49,0,0,1-1.12-.4,1.53,1.53,0,0,1-.4-1.15V93.67h-2a1.29,1.29,0,0,1-.92-.32,1.26,1.26,0,0,1,0-1.7,1.37,1.37,0,0,1,.92-.29h2.81l-.83.79V90.93A6,6,0,0,1,74,84.13l1-.07a1.1,1.1,0,0,1,.79.15,1,1,0,0,1,.39.55,1.17,1.17,0,0,1,0,.67A1.36,1.36,0,0,1,76,86a.85.85,0,0,1-.6.3l-.72,0a4.13,4.13,0,0,0-2.87,1.17,4.38,4.38,0,0,0-.89,3v1.32l-.43-.49h3.79a1.43,1.43,0,0,1,1,.29,1.26,1.26,0,0,1,0,1.7,1.34,1.34,0,0,1-1,.32H70.87v12.44C70.87,107.14,70.37,107.66,69.38,107.66Z" transform="translate(-23.46 -6.73)"/><path d="M84.53,107.72a6.89,6.89,0,0,1-3.25-.69,4.41,4.41,0,0,1-2-2,7.34,7.34,0,0,1-.64-3.24V93.67H76.57a1.29,1.29,0,0,1-.92-.32,1.26,1.26,0,0,1,0-1.7,1.37,1.37,0,0,1,.92-.29h2.12v-3.6a1.51,1.51,0,0,1,.39-1.14,1.58,1.58,0,0,1,1.12-.38,1.51,1.51,0,0,1,1.11.38,1.55,1.55,0,0,1,.38,1.14v3.6h4a1.43,1.43,0,0,1,1,.29,1.26,1.26,0,0,1,0,1.7,1.34,1.34,0,0,1-1,.32h-4v7.85a4.22,4.22,0,0,0,.76,2.74,3,3,0,0,0,2.51.92,4.45,4.45,0,0,0,1.05-.11,2.89,2.89,0,0,1,.76-.12.59.59,0,0,1,.51.2,1.24,1.24,0,0,1,.22.86,2.24,2.24,0,0,1-.15.84.85.85,0,0,1-.58.51,7.82,7.82,0,0,1-1,.25A6.74,6.74,0,0,1,84.53,107.72Z" transform="translate(-23.46 -6.73)"/><path d="M96.14,107.66a1.89,1.89,0,0,1-1.09-.32,2,2,0,0,1-.72-1L89.41,93.2a1.94,1.94,0,0,1-.13-1.08,1.16,1.16,0,0,1,.46-.73,1.56,1.56,0,0,1,1-.26,1.37,1.37,0,0,1,.89.26,2,2,0,0,1,.56,1L96.64,105h-.79l4.62-12.74a1.77,1.77,0,0,1,.61-.87,1.5,1.5,0,0,1,.94-.28,1.67,1.67,0,0,1,1,.28,1.49,1.49,0,0,1,.56.87L108.12,105h-.76l4.56-12.74a1.78,1.78,0,0,1,.59-.91,1.58,1.58,0,0,1,.89-.24,1.19,1.19,0,0,1,.89.29,1.23,1.23,0,0,1,.35.78,2.24,2.24,0,0,1-.15,1l-4.92,13.1a1.93,1.93,0,0,1-2.92,1,2.1,2.1,0,0,1-.74-1l-4.72-12.93h1.52L98,106.3a2.15,2.15,0,0,1-.73,1A1.86,1.86,0,0,1,96.14,107.66Z" transform="translate(-23.46 -6.73)"/><path d="M123.6,107.72a6.66,6.66,0,0,1-3-.66,5.2,5.2,0,0,1-2.08-1.78,4.48,4.48,0,0,1-.74-2.51,4.14,4.14,0,0,1,.89-2.8,5.42,5.42,0,0,1,3-1.47,28.43,28.43,0,0,1,5.68-.45h1.55V100h-1.48a27.7,27.7,0,0,0-4,.23,3.78,3.78,0,0,0-2.07.81,2.14,2.14,0,0,0-.59,1.6,2.7,2.7,0,0,0,.91,2.11,3.55,3.55,0,0,0,2.49.83,4.07,4.07,0,0,0,2.21-.61,4.47,4.47,0,0,0,1.52-1.65,5,5,0,0,0,.56-2.4V97.1a4.11,4.11,0,0,0-.79-2.82A3.46,3.46,0,0,0,125,93.4a8.92,8.92,0,0,0-2.24.3,13,13,0,0,0-2.41.92,1.28,1.28,0,0,1-.86.15.88.88,0,0,1-.57-.39,1.25,1.25,0,0,1-.23-.7,1.4,1.4,0,0,1,.16-.74,1.11,1.11,0,0,1,.64-.53,12.55,12.55,0,0,1,5.58-1.35,7.9,7.9,0,0,1,3.53.68,4.4,4.4,0,0,1,2.08,2.07,8.13,8.13,0,0,1,.69,3.58v8.72a1.65,1.65,0,0,1-.36,1.15,1.56,1.56,0,0,1-2.09,0,1.57,1.57,0,0,1-.38-1.15v-2.35h.29a4.81,4.81,0,0,1-2.79,3.49A6,6,0,0,1,123.6,107.72Z" transform="translate(-23.46 -6.73)"/><path d="M138.15,107.66a1.4,1.4,0,0,1-1.55-1.55V92.64a1.35,1.35,0,0,1,1.49-1.51,1.47,1.47,0,0,1,1.07.37,1.58,1.58,0,0,1,.38,1.14v2.54h-.33a5.11,5.11,0,0,1,2-3A6.91,6.91,0,0,1,144.85,91a1.16,1.16,0,0,1,.86.24,1.26,1.26,0,0,1,.36.94,1.38,1.38,0,0,1-.3,1,1.52,1.52,0,0,1-1,.45l-.59,0a5.32,5.32,0,0,0-3.35,1.42,4.44,4.44,0,0,0-1.17,3.26v7.73a1.61,1.61,0,0,1-.38,1.15A1.45,1.45,0,0,1,138.15,107.66Z" transform="translate(-23.46 -6.73)"/><path d="M156.37,107.72a9.28,9.28,0,0,1-4.47-1,7,7,0,0,1-2.89-2.87,9.09,9.09,0,0,1-1-4.41,9.2,9.2,0,0,1,1-4.39,7.45,7.45,0,0,1,2.77-2.93,7.7,7.7,0,0,1,4.05-1.06,7.59,7.59,0,0,1,2.92.54A6.19,6.19,0,0,1,161,93.17a6.75,6.75,0,0,1,1.41,2.49,10.69,10.69,0,0,1,.47,3.32,1,1,0,0,1-.31.81,1.36,1.36,0,0,1-.91.28H150.33V98.15h10.52l-.56.47a7.45,7.45,0,0,0-.51-2.92,3.91,3.91,0,0,0-1.48-1.84,4.47,4.47,0,0,0-2.43-.62,4.56,4.56,0,0,0-4.42,2.82,7.46,7.46,0,0,0-.59,3.08v.2a6.33,6.33,0,0,0,1.42,4.49,5.31,5.31,0,0,0,4.09,1.52,9.12,9.12,0,0,0,2.16-.27,6.32,6.32,0,0,0,2.13-1,1.64,1.64,0,0,1,.9-.28,1,1,0,0,1,1,.85,1.26,1.26,0,0,1-.1.75,1.61,1.61,0,0,1-.62.69,8.17,8.17,0,0,1-2.6,1.17A10.65,10.65,0,0,1,156.37,107.72Z" transform="translate(-23.46 -6.73)"/><path d="M181.28,107.72a4.73,4.73,0,0,1-3.76-1.47,6.21,6.21,0,0,1-1.29-4.24V85.45a1.48,1.48,0,0,1,.4-1.14,1.52,1.52,0,0,1,1.09-.38,1.57,1.57,0,0,1,1.12.38,1.52,1.52,0,0,1,.4,1.14v16.33a3.85,3.85,0,0,0,.71,2.56,2.48,2.48,0,0,0,2,.84h.53l.46,0a.52.52,0,0,1,.53.19,1.78,1.78,0,0,1,.17.93,1.53,1.53,0,0,1-.28,1,1.43,1.43,0,0,1-.91.45l-.59,0Z" transform="translate(-23.46 -6.73)"/><path d="M191.74,107.72a4.73,4.73,0,0,1-3.76-1.47,6.21,6.21,0,0,1-1.29-4.24V85.45a1.36,1.36,0,0,1,1.49-1.52,1.57,1.57,0,0,1,1.12.38,1.52,1.52,0,0,1,.4,1.14v16.33a3.85,3.85,0,0,0,.71,2.56,2.51,2.51,0,0,0,2,.84H193l.47,0a.52.52,0,0,1,.52.19,1.78,1.78,0,0,1,.17.93,1.53,1.53,0,0,1-.28,1,1.43,1.43,0,0,1-.91.45l-.59,0Z" transform="translate(-23.46 -6.73)"/><path d="M198.64,87.63a2,2,0,0,1-1.4-.48,1.89,1.89,0,0,1,0-2.58,2.08,2.08,0,0,1,1.4-.44,2,2,0,0,1,1.43.44,2,2,0,0,1,0,2.58A1.91,1.91,0,0,1,198.64,87.63Zm0,20a1.39,1.39,0,0,1-1.09-.43,1.69,1.69,0,0,1-.4-1.19V92.81a1.71,1.71,0,0,1,.4-1.21,1.46,1.46,0,0,1,1.09-.41,1.5,1.5,0,0,1,1.12.41,1.67,1.67,0,0,1,.4,1.21V106a1.73,1.73,0,0,1-.38,1.19A1.45,1.45,0,0,1,198.64,107.59Z" transform="translate(-23.46 -6.73)"/><path d="M211.25,107.72A6.62,6.62,0,0,1,208,107a4.47,4.47,0,0,1-1.94-2.15,9,9,0,0,1-.62-3.56V92.64a1.54,1.54,0,0,1,.38-1.14,1.49,1.49,0,0,1,1.1-.37,1.55,1.55,0,0,1,1.12.37,1.51,1.51,0,0,1,.4,1.14v8.65a4.61,4.61,0,0,0,.83,3,3.21,3.21,0,0,0,2.6,1,4.21,4.21,0,0,0,3.22-1.32,4.88,4.88,0,0,0,1.24-3.5V92.64a1.54,1.54,0,0,1,.38-1.14,1.49,1.49,0,0,1,1.1-.37,1.55,1.55,0,0,1,1.12.37,1.51,1.51,0,0,1,.4,1.14v13.47c0,1-.48,1.55-1.45,1.55a1.45,1.45,0,0,1-1.11-.4,1.61,1.61,0,0,1-.38-1.15v-2.87l.43.56a5.65,5.65,0,0,1-2.13,2.92A5.93,5.93,0,0,1,211.25,107.72Z" transform="translate(-23.46 -6.73)"/><path d="M226.23,107.66a1.39,1.39,0,0,1-1.55-1.55V92.64a1.33,1.33,0,0,1,1.48-1.51,1.45,1.45,0,0,1,1.07.37,1.54,1.54,0,0,1,.38,1.14v2.54h-.33a5.11,5.11,0,0,1,2-3A6.91,6.91,0,0,1,232.93,91a1.14,1.14,0,0,1,.85.24,1.3,1.3,0,0,1,.37.94,1.38,1.38,0,0,1-.3,1,1.52,1.52,0,0,1-1,.45l-.6,0a5.32,5.32,0,0,0-3.35,1.42,4.44,4.44,0,0,0-1.17,3.26v7.73a1.61,1.61,0,0,1-.38,1.15A1.43,1.43,0,0,1,226.23,107.66Z" transform="translate(-23.46 -6.73)"/><path d="M244.44,107.72a9.31,9.31,0,0,1-4.47-1,7.13,7.13,0,0,1-2.89-2.87,9.09,9.09,0,0,1-1-4.41,9.21,9.21,0,0,1,1-4.39,7.38,7.38,0,0,1,2.77-2.93,7.66,7.66,0,0,1,4-1.06,7.56,7.56,0,0,1,2.92.54A6.31,6.31,0,0,1,249,93.17a6.73,6.73,0,0,1,1.4,2.49,10.69,10.69,0,0,1,.48,3.32,1,1,0,0,1-.31.81,1.36,1.36,0,0,1-.91.28H238.4V98.15h10.53l-.56.47a7.45,7.45,0,0,0-.51-2.92,3.93,3.93,0,0,0-1.49-1.84,4.44,4.44,0,0,0-2.42-.62,4.76,4.76,0,0,0-2.71.74,4.64,4.64,0,0,0-1.71,2.08,7.46,7.46,0,0,0-.6,3.08v.2a6.38,6.38,0,0,0,1.42,4.49,5.34,5.34,0,0,0,4.09,1.52,9,9,0,0,0,2.16-.27,6.32,6.32,0,0,0,2.13-1,1.67,1.67,0,0,1,.91-.28,1,1,0,0,1,.68.26,1.16,1.16,0,0,1,.33.59,1.34,1.34,0,0,1-.1.75,1.57,1.57,0,0,1-.63.69,8.11,8.11,0,0,1-2.59,1.17A10.66,10.66,0,0,1,244.44,107.72Z" transform="translate(-23.46 -6.73)"/><path d="M28.66,143.6a1.45,1.45,0,0,1-1.09-.4,1.53,1.53,0,0,1-.4-1.12V122.64a1.55,1.55,0,0,1,.4-1.14,1.52,1.52,0,0,1,1.09-.37,1.49,1.49,0,0,1,1.1.37,1.54,1.54,0,0,1,.38,1.14v3l-.36-.6a5.18,5.18,0,0,1,2.08-2.9,6.29,6.29,0,0,1,3.73-1.09,6.52,6.52,0,0,1,6.2,3.88,10.11,10.11,0,0,1,.89,4.44,10.52,10.52,0,0,1-.87,4.43,6.53,6.53,0,0,1-2.48,2.91,6.86,6.86,0,0,1-3.74,1,6.26,6.26,0,0,1-3.7-1.09,5.27,5.27,0,0,1-2.08-2.87h.37v8.32a1.53,1.53,0,0,1-.4,1.12A1.49,1.49,0,0,1,28.66,143.6Zm6.24-8.25a4.45,4.45,0,0,0,2.49-.7,4.5,4.5,0,0,0,1.66-2,7.88,7.88,0,0,0,.6-3.26A6.67,6.67,0,0,0,38.36,125a4.31,4.31,0,0,0-3.46-1.52,4.67,4.67,0,0,0-2.53.68,4.4,4.4,0,0,0-1.65,2,8.25,8.25,0,0,0-.58,3.27,6.71,6.71,0,0,0,1.29,4.43A4.27,4.27,0,0,0,34.9,135.35Z" transform="translate(-23.46 -6.73)"/><path d="M54.5,137.72a9.28,9.28,0,0,1-4.47-1,7,7,0,0,1-2.89-2.87,9.09,9.09,0,0,1-1-4.41,9.2,9.2,0,0,1,1-4.39,7.45,7.45,0,0,1,2.77-2.93,7.7,7.7,0,0,1,4-1.06,7.59,7.59,0,0,1,2.92.54,6.19,6.19,0,0,1,2.22,1.57,6.75,6.75,0,0,1,1.41,2.49A10.69,10.69,0,0,1,61,129a1,1,0,0,1-.31.81,1.36,1.36,0,0,1-.91.28H48.46v-1.92H59l-.56.47a7.45,7.45,0,0,0-.51-2.92,3.91,3.91,0,0,0-1.48-1.84,4.47,4.47,0,0,0-2.43-.62,4.56,4.56,0,0,0-4.42,2.82,7.46,7.46,0,0,0-.59,3.08v.2a6.33,6.33,0,0,0,1.42,4.49,5.31,5.31,0,0,0,4.09,1.52,9.12,9.12,0,0,0,2.16-.27,6.41,6.41,0,0,0,2.13-1,1.64,1.64,0,0,1,.9-.28,1,1,0,0,1,1,.85,1.26,1.26,0,0,1-.1.75,1.61,1.61,0,0,1-.62.69,8.17,8.17,0,0,1-2.6,1.17A10.65,10.65,0,0,1,54.5,137.72Z" transform="translate(-23.46 -6.73)"/><path d="M66.77,137.66a1.4,1.4,0,0,1-1.55-1.55V122.64a1.35,1.35,0,0,1,1.49-1.51,1.45,1.45,0,0,1,1.07.37,1.58,1.58,0,0,1,.38,1.14v2.54h-.33a5.11,5.11,0,0,1,2-3A6.91,6.91,0,0,1,73.47,121a1.16,1.16,0,0,1,.86.24,1.26,1.26,0,0,1,.36.94,1.37,1.37,0,0,1-.29,1,1.55,1.55,0,0,1-1,.45l-.59,0a5.32,5.32,0,0,0-3.35,1.42,4.44,4.44,0,0,0-1.17,3.26v7.73a1.61,1.61,0,0,1-.38,1.15A1.45,1.45,0,0,1,66.77,137.66Z" transform="translate(-23.46 -6.73)"/><path d="M92.05,137.72a6.66,6.66,0,0,1-3-.66A5.2,5.2,0,0,1,87,135.28a4.48,4.48,0,0,1-.74-2.51,4.14,4.14,0,0,1,.89-2.8,5.42,5.42,0,0,1,3-1.47,28.32,28.32,0,0,1,5.67-.45h1.55V130H95.88a27.7,27.7,0,0,0-4,.23,3.71,3.71,0,0,0-2.06.81,2.11,2.11,0,0,0-.6,1.6,2.7,2.7,0,0,0,.91,2.11,3.55,3.55,0,0,0,2.49.83,4.07,4.07,0,0,0,2.21-.61,4.39,4.39,0,0,0,1.52-1.65,5,5,0,0,0,.56-2.4V127.1a4.11,4.11,0,0,0-.79-2.82,3.45,3.45,0,0,0-2.67-.88,8.93,8.93,0,0,0-2.25.3,13,13,0,0,0-2.41.92,1.28,1.28,0,0,1-.86.15.88.88,0,0,1-.57-.39,1.25,1.25,0,0,1-.23-.7,1.4,1.4,0,0,1,.16-.74,1.11,1.11,0,0,1,.64-.53,12.55,12.55,0,0,1,5.58-1.35,7.9,7.9,0,0,1,3.53.68,4.4,4.4,0,0,1,2.08,2.07,8.13,8.13,0,0,1,.69,3.58v8.72a1.65,1.65,0,0,1-.36,1.15,1.33,1.33,0,0,1-1,.4,1.35,1.35,0,0,1-1-.4,1.57,1.57,0,0,1-.38-1.15v-2.35h.29a4.83,4.83,0,0,1-2.78,3.49A6.09,6.09,0,0,1,92.05,137.72Z" transform="translate(-23.46 -6.73)"/><path d="M119.24,137.72a4.73,4.73,0,0,1-3.76-1.47,6.21,6.21,0,0,1-1.29-4.24V115.45a1.48,1.48,0,0,1,.4-1.14,1.52,1.52,0,0,1,1.09-.38,1.57,1.57,0,0,1,1.12.38,1.52,1.52,0,0,1,.4,1.14v16.33a3.91,3.91,0,0,0,.7,2.56,2.52,2.52,0,0,0,2,.84h.53l.46,0a.52.52,0,0,1,.53.19,1.78,1.78,0,0,1,.17.93,1.53,1.53,0,0,1-.28,1,1.43,1.43,0,0,1-.91.45l-.6.05Z" transform="translate(-23.46 -6.73)"/><path d="M125.05,121a1.19,1.19,0,0,1-.71.49.84.84,0,0,1-.66-.13.74.74,0,0,1-.31-.59,1.18,1.18,0,0,1,.33-.86,4.13,4.13,0,0,0,.77-1.44,5,5,0,0,0,.22-1.33l.13.75a2.12,2.12,0,0,1-1.5-.52,1.83,1.83,0,0,1-.58-1.42,2,2,0,0,1,.53-1.41,1.88,1.88,0,0,1,1.42-.54,1.81,1.81,0,0,1,1.43.61,2.65,2.65,0,0,1,.55,1.8,7.8,7.8,0,0,1-.15,1.47,8,8,0,0,1-.48,1.56A5.82,5.82,0,0,1,125.05,121Z" transform="translate(-23.46 -6.73)"/><path d="M137.69,137.72a9.28,9.28,0,0,1-4.47-1,7,7,0,0,1-2.89-2.87,9.09,9.09,0,0,1-1-4.41,9.2,9.2,0,0,1,1-4.39,7.45,7.45,0,0,1,2.77-2.93,7.7,7.7,0,0,1,4-1.06,7.59,7.59,0,0,1,2.92.54,6.19,6.19,0,0,1,2.22,1.57,6.75,6.75,0,0,1,1.41,2.49,10.69,10.69,0,0,1,.48,3.32,1,1,0,0,1-.32.81,1.35,1.35,0,0,1-.9.28H131.65v-1.92h10.53l-.56.47a7.44,7.44,0,0,0-.52-2.92,3.91,3.91,0,0,0-1.48-1.84,4.47,4.47,0,0,0-2.43-.62,4.56,4.56,0,0,0-4.42,2.82,7.62,7.62,0,0,0-.59,3.08v.2a6.33,6.33,0,0,0,1.42,4.49,5.33,5.33,0,0,0,4.09,1.52,9.12,9.12,0,0,0,2.16-.27,6.32,6.32,0,0,0,2.13-1,1.65,1.65,0,0,1,.91-.28,1,1,0,0,1,.67.26,1,1,0,0,1,.33.59,1.26,1.26,0,0,1-.1.75,1.61,1.61,0,0,1-.62.69,8.21,8.21,0,0,1-2.59,1.17A10.77,10.77,0,0,1,137.69,137.72Z" transform="translate(-23.46 -6.73)"/><path d="M155.38,137.72a8.19,8.19,0,0,1-4.23-1,6.93,6.93,0,0,1-2.74-2.93,9.81,9.81,0,0,1-.95-4.47,10.26,10.26,0,0,1,.54-3.44,7.29,7.29,0,0,1,1.57-2.59,6.66,6.66,0,0,1,2.49-1.63,9.32,9.32,0,0,1,3.32-.56,9.07,9.07,0,0,1,2.44.36,7,7,0,0,1,2.37,1.19,1.17,1.17,0,0,1,.47.61,1.42,1.42,0,0,1,0,.71,1.14,1.14,0,0,1-.33.61.92.92,0,0,1-.62.28,1.29,1.29,0,0,1-.81-.23,5.42,5.42,0,0,0-1.67-.86,6,6,0,0,0-1.67-.26,5.62,5.62,0,0,0-2.16.39,4.42,4.42,0,0,0-1.58,1.14,5,5,0,0,0-1,1.82,8.44,8.44,0,0,0-.33,2.49,6.7,6.7,0,0,0,1.32,4.4,4.56,4.56,0,0,0,3.73,1.6,6.1,6.1,0,0,0,1.65-.24,5.68,5.68,0,0,0,1.69-.84,1.2,1.2,0,0,1,.79-.22,1,1,0,0,1,.61.3,1.09,1.09,0,0,1,.31.59,1.33,1.33,0,0,1-.05.71,1.07,1.07,0,0,1-.48.6,7.15,7.15,0,0,1-2.31,1.15A8.63,8.63,0,0,1,155.38,137.72Z" transform="translate(-23.46 -6.73)"/><path d="M170.79,137.72a8.06,8.06,0,0,1-4.13-1,6.89,6.89,0,0,1-2.7-2.9,9.63,9.63,0,0,1-1-4.42,10.32,10.32,0,0,1,.54-3.45,7.52,7.52,0,0,1,1.57-2.63,6.78,6.78,0,0,1,2.46-1.66,8.47,8.47,0,0,1,3.22-.58,8,8,0,0,1,4.12,1,6.94,6.94,0,0,1,2.71,2.89,9.5,9.5,0,0,1,1,4.41,10.46,10.46,0,0,1-.55,3.46,7.28,7.28,0,0,1-1.57,2.64,6.8,6.8,0,0,1-2.46,1.67A8.58,8.58,0,0,1,170.79,137.72Zm0-2.37a4.46,4.46,0,0,0,2.52-.7,4.35,4.35,0,0,0,1.65-2,8.06,8.06,0,0,0,.58-3.26,6.67,6.67,0,0,0-1.29-4.43,4.31,4.31,0,0,0-3.46-1.52,4.55,4.55,0,0,0-2.49.68,4.43,4.43,0,0,0-1.67,2,7.9,7.9,0,0,0-.59,3.27,6.65,6.65,0,0,0,1.3,4.43A4.29,4.29,0,0,0,170.79,135.35Z" transform="translate(-23.46 -6.73)"/><path d="M184.45,137.66a1.45,1.45,0,0,1-1.09-.4,1.57,1.57,0,0,1-.4-1.15V122.64a1.55,1.55,0,0,1,.4-1.14,1.52,1.52,0,0,1,1.09-.37,1.45,1.45,0,0,1,1.07.37,1.58,1.58,0,0,1,.38,1.14v2.71l-.36-.5A5.31,5.31,0,0,1,187.8,122a6.71,6.71,0,0,1,3.58-1,6.6,6.6,0,0,1,3.2.69,4.32,4.32,0,0,1,1.88,2.11,8.94,8.94,0,0,1,.63,3.6v8.65a1.61,1.61,0,0,1-.38,1.15,1.44,1.44,0,0,1-1.11.4,1.51,1.51,0,0,1-1.12-.4,1.57,1.57,0,0,1-.4-1.15v-8.48a4.88,4.88,0,0,0-.82-3.14,3.25,3.25,0,0,0-2.64-1,4.52,4.52,0,0,0-3.38,1.3,4.81,4.81,0,0,0-1.27,3.52v7.79A1.36,1.36,0,0,1,184.45,137.66Z" transform="translate(-23.46 -6.73)"/><path d="M209.2,137.72a8.08,8.08,0,0,1-4.13-1,7,7,0,0,1-2.7-2.9,9.63,9.63,0,0,1-1-4.42,10.07,10.07,0,0,1,.55-3.45,7.35,7.35,0,0,1,1.56-2.63,6.86,6.86,0,0,1,2.46-1.66,8.47,8.47,0,0,1,3.22-.58,8,8,0,0,1,4.12,1A6.94,6.94,0,0,1,216,125a9.5,9.5,0,0,1,1,4.41,10.21,10.21,0,0,1-.55,3.46,7.4,7.4,0,0,1-1.56,2.64,7,7,0,0,1-2.46,1.67A8.67,8.67,0,0,1,209.2,137.72Zm0-2.37a4.46,4.46,0,0,0,2.52-.7,4.35,4.35,0,0,0,1.65-2,8.06,8.06,0,0,0,.58-3.26,6.67,6.67,0,0,0-1.29-4.43,4.3,4.3,0,0,0-3.46-1.52,4.55,4.55,0,0,0-2.49.68,4.43,4.43,0,0,0-1.67,2,7.9,7.9,0,0,0-.59,3.27,6.65,6.65,0,0,0,1.3,4.43A4.29,4.29,0,0,0,209.2,135.35Z" transform="translate(-23.46 -6.73)"/><path d="M222.93,137.66a1.43,1.43,0,0,1-1.09-.4,1.53,1.53,0,0,1-.4-1.15V122.64a1.35,1.35,0,0,1,1.49-1.51,1.45,1.45,0,0,1,1.07.37,1.58,1.58,0,0,1,.38,1.14v2.81l-.36-.6a5.48,5.48,0,0,1,2-2.8,5.69,5.69,0,0,1,3.35-1,5.2,5.2,0,0,1,3.3,1,4.91,4.91,0,0,1,1.69,3h-.46a5.39,5.39,0,0,1,2.12-2.87,6.14,6.14,0,0,1,3.58-1.06,5.73,5.73,0,0,1,3,.71,4.42,4.42,0,0,1,1.77,2.11,9.39,9.39,0,0,1,.59,3.58v8.65a1.57,1.57,0,0,1-.39,1.15,1.46,1.46,0,0,1-1.09.4,1.51,1.51,0,0,1-1.13-.4,1.57,1.57,0,0,1-.39-1.15v-8.52a5.25,5.25,0,0,0-.73-3.1,2.82,2.82,0,0,0-2.44-1,3.76,3.76,0,0,0-3,1.3,5.41,5.41,0,0,0-1.1,3.58v7.73a1.61,1.61,0,0,1-.38,1.15,1.44,1.44,0,0,1-1.11.4,1.51,1.51,0,0,1-1.12-.4,1.57,1.57,0,0,1-.39-1.15v-8.52a5.32,5.32,0,0,0-.73-3.1,2.84,2.84,0,0,0-2.44-1,3.74,3.74,0,0,0-3,1.3,5.36,5.36,0,0,0-1.11,3.58v7.73A1.35,1.35,0,0,1,222.93,137.66Z" transform="translate(-23.46 -6.73)"/><path d="M251.8,117.63a2,2,0,0,1-1.4-.48,1.89,1.89,0,0,1,0-2.58,2.51,2.51,0,0,1,2.84,0,2,2,0,0,1,0,2.58A2,2,0,0,1,251.8,117.63Zm0,20a1.41,1.41,0,0,1-1.09-.43,1.69,1.69,0,0,1-.39-1.19V122.81a1.71,1.71,0,0,1,.39-1.21,1.69,1.69,0,0,1,2.21,0,1.67,1.67,0,0,1,.4,1.21V136a1.73,1.73,0,0,1-.38,1.19A1.42,1.42,0,0,1,251.8,137.59Z" transform="translate(-23.46 -6.73)"/><path d="M263.78,137.72a6.7,6.7,0,0,1-3-.66,5.1,5.1,0,0,1-2.07-1.78,4.41,4.41,0,0,1-.75-2.51,4.14,4.14,0,0,1,.89-2.8,5.42,5.42,0,0,1,3-1.47,28.32,28.32,0,0,1,5.67-.45h1.55V130h-1.48a27.7,27.7,0,0,0-4,.23,3.71,3.71,0,0,0-2.06.81,2.11,2.11,0,0,0-.6,1.6,2.74,2.74,0,0,0,.91,2.11,3.58,3.58,0,0,0,2.49.83,4.07,4.07,0,0,0,2.21-.61,4.39,4.39,0,0,0,1.52-1.65,5,5,0,0,0,.56-2.4V127.1a4.11,4.11,0,0,0-.79-2.82,3.45,3.45,0,0,0-2.67-.88,8.93,8.93,0,0,0-2.25.3,13,13,0,0,0-2.41.92,1.26,1.26,0,0,1-.85.15.88.88,0,0,1-.58-.39,1.25,1.25,0,0,1-.23-.7,1.5,1.5,0,0,1,.16-.74,1.1,1.1,0,0,1,.65-.53,12.47,12.47,0,0,1,5.57-1.35,7.9,7.9,0,0,1,3.53.68,4.4,4.4,0,0,1,2.08,2.07,8.12,8.12,0,0,1,.7,3.58v8.72a1.61,1.61,0,0,1-.37,1.15,1.33,1.33,0,0,1-1.05.4,1.35,1.35,0,0,1-1-.4,1.57,1.57,0,0,1-.38-1.15v-2.35h.3a5,5,0,0,1-1,2.12,4.85,4.85,0,0,1-1.79,1.37A6.09,6.09,0,0,1,263.78,137.72Z" transform="translate(-23.46 -6.73)"/><path d="M291.47,137.72a13.32,13.32,0,0,1-3-.34,8.58,8.58,0,0,1-2.82-1.21,1.26,1.26,0,0,1-.51-.57,1.33,1.33,0,0,1-.1-.7,1.11,1.11,0,0,1,.28-.61.9.9,0,0,1,.58-.31,1.19,1.19,0,0,1,.74.18,10.23,10.23,0,0,0,2.49,1,9.84,9.84,0,0,0,2.39.3,4.69,4.69,0,0,0,2.74-.66,2,2,0,0,0,.93-1.75,1.76,1.76,0,0,0-.62-1.43,4.18,4.18,0,0,0-1.89-.78l-3.07-.63a6.12,6.12,0,0,1-3.09-1.53,3.83,3.83,0,0,1-1-2.76,4.27,4.27,0,0,1,.81-2.59,5.2,5.2,0,0,1,2.26-1.7,8.89,8.89,0,0,1,3.34-.59,9.93,9.93,0,0,1,2.75.38,7.49,7.49,0,0,1,2.36,1.14,1,1,0,0,1,.51.57,1.2,1.2,0,0,1,0,.7,1.07,1.07,0,0,1-.31.57,1,1,0,0,1-.59.29,1.28,1.28,0,0,1-.79-.19,6.7,6.7,0,0,0-2-.94,7.64,7.64,0,0,0-2-.28,4.32,4.32,0,0,0-2.69.7,2.15,2.15,0,0,0-.91,1.81,2,2,0,0,0,.54,1.42,3.41,3.41,0,0,0,1.74.82l3.06.63a6.88,6.88,0,0,1,3.24,1.47,3.55,3.55,0,0,1,1.09,2.72,4.17,4.17,0,0,1-1.77,3.55A7.76,7.76,0,0,1,291.47,137.72Z" transform="translate(-23.46 -6.73)"/><path d="M309.22,137.72a8,8,0,0,1-4.12-1,6.91,6.91,0,0,1-2.71-2.9,9.63,9.63,0,0,1-1-4.42,10.07,10.07,0,0,1,.55-3.45,7.35,7.35,0,0,1,1.56-2.63,7,7,0,0,1,2.46-1.66,8.47,8.47,0,0,1,3.22-.58,8.08,8.08,0,0,1,4.13,1,7,7,0,0,1,2.7,2.89,9.5,9.5,0,0,1,1,4.41,10.21,10.21,0,0,1-.55,3.46,7.4,7.4,0,0,1-1.56,2.64,7,7,0,0,1-2.46,1.67A8.67,8.67,0,0,1,309.22,137.72Zm0-2.37a4.51,4.51,0,0,0,2.53-.7,4.4,4.4,0,0,0,1.64-2,8.06,8.06,0,0,0,.58-3.26,6.73,6.73,0,0,0-1.28-4.43,4.33,4.33,0,0,0-3.47-1.52,4.55,4.55,0,0,0-2.49.68,4.43,4.43,0,0,0-1.67,2,8.07,8.07,0,0,0-.59,3.27,6.65,6.65,0,0,0,1.3,4.43A4.29,4.29,0,0,0,309.22,135.35Z" transform="translate(-23.46 -6.73)"/><path d="M328.36,137.72a8.13,8.13,0,0,1-4.22-1,6.93,6.93,0,0,1-2.74-2.93,9.81,9.81,0,0,1-1-4.47,10.26,10.26,0,0,1,.54-3.44,7.43,7.43,0,0,1,1.57-2.59,6.66,6.66,0,0,1,2.49-1.63,9.36,9.36,0,0,1,3.32-.56,9.07,9.07,0,0,1,2.44.36,7.1,7.1,0,0,1,2.38,1.19,1.2,1.2,0,0,1,.46.61,1.42,1.42,0,0,1,0,.71,1.3,1.3,0,0,1-.33.61,1,1,0,0,1-.63.28,1.33,1.33,0,0,1-.81-.23,5.31,5.31,0,0,0-1.67-.86,5.9,5.9,0,0,0-1.66-.26,5.55,5.55,0,0,0-2.16.39,4.37,4.37,0,0,0-1.59,1.14,5,5,0,0,0-1,1.82,8.44,8.44,0,0,0-.33,2.49,6.7,6.7,0,0,0,1.32,4.4,4.55,4.55,0,0,0,3.73,1.6,6.1,6.1,0,0,0,1.65-.24,5.75,5.75,0,0,0,1.68-.84,1.21,1.21,0,0,1,.79-.22,1,1,0,0,1,.61.3,1.11,1.11,0,0,1,.32.59,1.57,1.57,0,0,1-.05.71,1.16,1.16,0,0,1-.48.6,7.15,7.15,0,0,1-2.31,1.15A8.75,8.75,0,0,1,328.36,137.72Z" transform="translate(-23.46 -6.73)"/><path d="M338.75,117.63a2,2,0,0,1-1.4-.48,1.89,1.89,0,0,1,0-2.58,2.51,2.51,0,0,1,2.84,0,2,2,0,0,1,0,2.58A2,2,0,0,1,338.75,117.63Zm0,20a1.37,1.37,0,0,1-1.08-.43,1.65,1.65,0,0,1-.4-1.19V122.81a1.67,1.67,0,0,1,.4-1.21,1.43,1.43,0,0,1,1.08-.41,1.52,1.52,0,0,1,1.13.41,1.71,1.71,0,0,1,.39,1.21V136a1.69,1.69,0,0,1-.38,1.19A1.42,1.42,0,0,1,338.75,137.59Z" transform="translate(-23.46 -6.73)"/><path d="M350.73,137.72a6.62,6.62,0,0,1-3-.66,5.13,5.13,0,0,1-2.08-1.78,4.4,4.4,0,0,1-.74-2.51,4.09,4.09,0,0,1,.89-2.8,5.35,5.35,0,0,1,3-1.47,28.43,28.43,0,0,1,5.68-.45h1.55V130h-1.49a27.8,27.8,0,0,0-4,.23,3.75,3.75,0,0,0-2.06.81,2.11,2.11,0,0,0-.59,1.6,2.73,2.73,0,0,0,.9,2.11,3.58,3.58,0,0,0,2.49.83,4.11,4.11,0,0,0,2.22-.61,4.45,4.45,0,0,0,1.51-1.65,4.92,4.92,0,0,0,.56-2.4V127.1a4.11,4.11,0,0,0-.79-2.82,3.45,3.45,0,0,0-2.67-.88,8.86,8.86,0,0,0-2.24.3,12.7,12.7,0,0,0-2.41.92,1.29,1.29,0,0,1-.86.15.9.9,0,0,1-.58-.39,1.33,1.33,0,0,1-.23-.7,1.41,1.41,0,0,1,.17-.74,1.08,1.08,0,0,1,.64-.53,12.55,12.55,0,0,1,5.58-1.35,7.93,7.93,0,0,1,3.53.68,4.49,4.49,0,0,1,2.08,2.07,8.13,8.13,0,0,1,.69,3.58v8.72a1.65,1.65,0,0,1-.36,1.15,1.37,1.37,0,0,1-1.06.4,1.35,1.35,0,0,1-1-.4,1.61,1.61,0,0,1-.38-1.15v-2.35h.3a5.07,5.07,0,0,1-1,2.12,5,5,0,0,1-1.8,1.37A6.05,6.05,0,0,1,350.73,137.72Z" transform="translate(-23.46 -6.73)"/><path d="M368.78,137.72a4.73,4.73,0,0,1-3.76-1.47,6.21,6.21,0,0,1-1.28-4.24V115.45a1.51,1.51,0,0,1,.39-1.14,1.54,1.54,0,0,1,1.09-.38,1.57,1.57,0,0,1,1.12.38,1.48,1.48,0,0,1,.4,1.14v16.33a3.85,3.85,0,0,0,.71,2.56,2.51,2.51,0,0,0,2,.84H370l.47,0a.54.54,0,0,1,.53.19,1.81,1.81,0,0,1,.16.93,1.48,1.48,0,0,1-.28,1,1.43,1.43,0,0,1-.91.45l-.59.05Z" transform="translate(-23.46 -6.73)"/></svg>